<svg width="115" height="32" viewBox="0 0 115 32" fill="none" xmlns="http://www.w3.org/2000/svg">
<path d="M38.2184 24.9954C38.5657 24.9954 38.8262 25.0707 38.9999 25.2212C39.1736 25.3717 39.2604 25.5859 39.2604 25.8638C39.2604 26.4428 38.9131 26.7322 38.2184 26.7322H37.3326V28.1043C37.3326 28.4633 37.2284 28.7411 37.02 28.938C36.8231 29.1348 36.5626 29.2332 36.2384 29.2332C35.9142 29.2332 35.6479 29.1348 35.4395 28.938C35.2426 28.7411 35.1442 28.4633 35.1442 28.1043V26.7322H30.5938C30.2811 26.7322 30.038 26.6454 29.8643 26.4717C29.6906 26.2864 29.6038 26.0607 29.6038 25.7944C29.6038 25.5165 29.6964 25.2502 29.8817 24.9954L35.2484 17.284C35.3642 17.1219 35.5089 17.0003 35.6826 16.9192C35.8563 16.8266 36.0358 16.7803 36.221 16.7803C36.5221 16.7803 36.7826 16.8787 37.0026 17.0756C37.2226 17.2724 37.3326 17.5503 37.3326 17.9092V24.9954H38.2184ZM35.1442 24.9954V20.3234L31.9137 24.9954H35.1442ZM48.6324 24.9954C48.9798 24.9954 49.2403 25.0707 49.414 25.2212C49.5877 25.3717 49.6745 25.5859 49.6745 25.8638C49.6745 26.4428 49.3272 26.7322 48.6324 26.7322H47.7467V28.1043C47.7467 28.4633 47.6425 28.7411 47.434 28.938C47.2372 29.1348 46.9767 29.2332 46.6525 29.2332C46.3283 29.2332 46.062 29.1348 45.8535 28.938C45.6567 28.7411 45.5583 28.4633 45.5583 28.1043V26.7322H41.0078C40.6952 26.7322 40.4521 26.6454 40.2784 26.4717C40.1047 26.2864 40.0179 26.0607 40.0179 25.7944C40.0179 25.5165 40.1105 25.2502 40.2957 24.9954L45.6625 17.284C45.7783 17.1219 45.923 17.0003 46.0967 16.9192C46.2704 16.8266 46.4498 16.7803 46.6351 16.7803C46.9362 16.7803 47.1967 16.8787 47.4167 17.0756C47.6367 17.2724 47.7467 17.5503 47.7467 17.9092V24.9954H48.6324ZM45.5583 24.9954V20.3234L42.3278 24.9954H45.5583ZM57.0144 22.8418C57.7439 23.027 58.2997 23.3802 58.6818 23.9012C59.0755 24.4107 59.2723 25.0475 59.2723 25.8117C59.2723 26.8654 58.8844 27.7048 58.1086 28.3301C57.3329 28.9553 56.285 29.268 54.965 29.268C54.2124 29.268 53.4887 29.1522 52.794 28.9206C52.0993 28.689 51.5088 28.3648 51.0224 27.948C50.7561 27.7164 50.623 27.4443 50.623 27.1317C50.623 26.877 50.6925 26.6628 50.8314 26.4891C50.9819 26.3038 51.1556 26.2112 51.3524 26.2112C51.4682 26.2112 51.5724 26.2343 51.6651 26.2807C51.7577 26.3154 51.8851 26.3791 52.0472 26.4717C52.5335 26.7959 52.9966 27.0449 53.4366 27.2185C53.8766 27.3922 54.3571 27.4791 54.8782 27.4791C55.6424 27.4791 56.2097 27.3285 56.5802 27.0275C56.9508 26.7149 57.136 26.2459 57.136 25.6207C57.136 25.007 56.9392 24.5554 56.5455 24.266C56.1634 23.9649 55.5671 23.8144 54.7566 23.8144H53.7666C53.5003 23.8144 53.2919 23.7275 53.1414 23.5539C53.0024 23.3686 52.9329 23.1602 52.9329 22.9286C52.9329 22.6855 53.0024 22.477 53.1414 22.3034C53.2919 22.1297 53.5003 22.0428 53.7666 22.0428H54.4613C56.0476 22.0428 56.8408 21.4465 56.8408 20.2539C56.8408 19.6981 56.6729 19.2697 56.3371 18.9687C56.0013 18.6676 55.5382 18.5171 54.9476 18.5171C54.1024 18.5171 53.1993 18.8529 52.2382 19.5245C52.0761 19.6171 51.9487 19.6866 51.8561 19.7329C51.7635 19.7676 51.6593 19.785 51.5435 19.785C51.3467 19.785 51.173 19.6981 51.0224 19.5245C50.8835 19.3392 50.814 19.1192 50.814 18.8645C50.814 18.6908 50.843 18.5461 50.9009 18.4303C50.9703 18.3029 51.0746 18.1755 51.2135 18.0482C51.6998 17.6429 52.2787 17.3245 52.9503 17.0929C53.6335 16.8498 54.3282 16.7282 55.0345 16.7282C56.2387 16.7282 57.1939 17.0235 57.9002 17.614C58.6181 18.2045 58.977 18.9918 58.977 19.976C58.9655 20.6476 58.786 21.2381 58.4386 21.7476C58.1028 22.2455 57.6281 22.6102 57.0144 22.8418ZM68.9917 27.3227C69.6864 27.3227 70.0337 27.618 70.0337 28.2085C70.0337 28.8222 69.6864 29.129 68.9917 29.129H62.3918C62.0907 29.129 61.8534 29.0422 61.6797 28.8685C61.506 28.6832 61.4192 28.4575 61.4192 28.1912C61.4192 27.8438 61.5523 27.5312 61.8186 27.2533L65.7786 22.9981C66.2649 22.4655 66.618 21.9792 66.838 21.5392C67.0696 21.0876 67.1854 20.6418 67.1854 20.2018C67.1854 19.6576 67.0291 19.2408 66.7164 18.9513C66.4038 18.6618 65.958 18.5171 65.3791 18.5171C64.9044 18.5171 64.4412 18.6097 63.9896 18.795C63.5496 18.9687 63.1039 19.2118 62.6523 19.5245C62.5365 19.6055 62.4207 19.675 62.3049 19.7329C62.1891 19.7792 62.0734 19.8024 61.9576 19.8024C61.7607 19.8024 61.5871 19.7097 61.4365 19.5245C61.2976 19.3392 61.2281 19.1192 61.2281 18.8645C61.2281 18.6908 61.2571 18.5403 61.315 18.4129C61.3844 18.2855 61.4886 18.164 61.6276 18.0482C62.137 17.6429 62.7333 17.3245 63.4165 17.0929C64.0996 16.8498 64.7828 16.7282 65.4659 16.7282C66.6585 16.7282 67.608 17.0292 68.3143 17.6313C69.0322 18.2334 69.3911 19.0439 69.3911 20.0629C69.3911 20.7692 69.2406 21.435 68.9396 22.0602C68.6385 22.6739 68.129 23.3628 67.4112 24.127L64.4065 27.3227H68.9917ZM75.9838 29.2853C74.5365 29.2853 73.4307 28.7527 72.6665 27.6875C71.9023 26.6107 71.5202 25.0475 71.5202 22.9981C71.5202 20.9602 71.9023 19.4087 72.6665 18.3434C73.4307 17.2666 74.5365 16.7282 75.9838 16.7282C77.4312 16.7282 78.5369 17.2666 79.3011 18.3434C80.0653 19.4087 80.4474 20.9602 80.4474 22.9981C80.4474 25.0359 80.0653 26.5933 79.3011 27.6701C78.5369 28.7469 77.4312 29.2853 75.9838 29.2853ZM75.9838 27.5312C76.7712 27.5312 77.3443 27.1722 77.7033 26.4543C78.0622 25.7249 78.2417 24.5728 78.2417 22.9981C78.2417 21.4118 78.0622 20.2655 77.7033 19.5592C77.3443 18.8413 76.7712 18.4824 75.9838 18.4824C75.1965 18.4824 74.6233 18.8413 74.2644 19.5592C73.9054 20.2771 73.726 21.4234 73.726 22.9981C73.726 24.5728 73.9054 25.7249 74.2644 26.4543C74.6233 27.1722 75.1965 27.5312 75.9838 27.5312ZM85.9984 16.7282C87.55 16.7282 88.7426 17.255 89.5763 18.3087C90.4215 19.3508 90.8441 20.8444 90.8441 22.7897C90.8441 24.1212 90.6473 25.2791 90.2536 26.2633C89.8599 27.2359 89.2926 27.9827 88.5515 28.5038C87.8221 29.0248 86.9595 29.2853 85.9637 29.2853C85.3037 29.2853 84.6379 29.1696 83.9664 28.938C83.3064 28.6948 82.7448 28.3706 82.2817 27.9654C82.1311 27.838 82.0211 27.7164 81.9517 27.6006C81.8938 27.4733 81.8648 27.3227 81.8648 27.1491C81.8648 26.8943 81.9343 26.6801 82.0732 26.5064C82.2238 26.3212 82.3974 26.2286 82.5943 26.2286C82.7101 26.2286 82.8201 26.2517 82.9243 26.298C83.0285 26.3328 83.1558 26.3964 83.3064 26.4891C84.2674 27.1606 85.1242 27.4964 85.8769 27.4964C86.7221 27.4964 87.3879 27.1085 87.8742 26.3328C88.3605 25.5454 88.6152 24.4454 88.6384 23.0328C88.3721 23.5539 87.9726 23.9707 87.44 24.2833C86.9074 24.5844 86.3111 24.7349 85.6511 24.7349C84.9216 24.7349 84.2732 24.5728 83.7058 24.2486C83.1385 23.9128 82.6927 23.4497 82.3685 22.8591C82.0559 22.257 81.8996 21.5739 81.8996 20.8097C81.8996 20.0223 82.0732 19.3218 82.4206 18.7082C82.7795 18.0829 83.2658 17.5966 83.8795 17.2492C84.5048 16.9019 85.2111 16.7282 85.9984 16.7282ZM86.12 22.9633C86.7684 22.9633 87.2895 22.7607 87.6831 22.3555C88.0884 21.9386 88.291 21.4002 88.291 20.7402C88.291 20.0687 88.0884 19.5303 87.6831 19.125C87.2895 18.7082 86.7684 18.4997 86.12 18.4997C85.4832 18.4997 84.9737 18.7082 84.5916 19.125C84.2095 19.5303 84.0185 20.0687 84.0185 20.7402C84.0185 21.4118 84.2095 21.9502 84.5916 22.3555C84.9737 22.7607 85.4832 22.9633 86.12 22.9633ZM96.812 29.2853C95.3646 29.2853 94.2589 28.7527 93.4947 27.6875C92.7305 26.6107 92.3484 25.0475 92.3484 22.9981C92.3484 20.9602 92.7305 19.4087 93.4947 18.3434C94.2589 17.2666 95.3646 16.7282 96.812 16.7282C98.2593 16.7282 99.3651 17.2666 100.129 18.3434C100.893 19.4087 101.276 20.9602 101.276 22.9981C101.276 25.0359 100.893 26.5933 100.129 27.6701C99.3651 28.7469 98.2593 29.2853 96.812 29.2853ZM96.812 27.5312C97.5993 27.5312 98.1725 27.1722 98.5314 26.4543C98.8904 25.7249 99.0698 24.5728 99.0698 22.9981C99.0698 21.4118 98.8904 20.2655 98.5314 19.5592C98.1725 18.8413 97.5993 18.4824 96.812 18.4824C96.0246 18.4824 95.4515 18.8413 95.0925 19.5592C94.7336 20.2771 94.5541 21.4234 94.5541 22.9981C94.5541 24.5728 94.7336 25.7249 95.0925 26.4543C95.4515 27.1722 96.0246 27.5312 96.812 27.5312ZM110.752 16.8845C111.053 16.8845 111.284 16.9714 111.447 17.145C111.609 17.3071 111.69 17.5213 111.69 17.7877C111.69 18.054 111.609 18.3319 111.447 18.6213L105.906 28.6775C105.675 29.0711 105.356 29.268 104.951 29.268C104.673 29.268 104.424 29.1753 104.204 28.9901C103.996 28.7932 103.891 28.5559 103.891 28.278C103.891 28.0812 103.949 27.8843 104.065 27.6875L109.05 18.6908H103.805C103.11 18.6908 102.762 18.3955 102.762 17.805C102.762 17.1913 103.11 16.8845 103.805 16.8845H110.752Z" fill="#E1E1E1"/>
<path d="M29.4735 8.77358V7.48282C29.7579 7.30503 30.0673 7.17702 30.4015 7.0988C30.174 6.66499 30.0602 6.21696 30.0602 5.7547C30.0602 5.02932 30.27 4.45327 30.6895 4.02658C31.0736 3.63544 31.5714 3.43987 32.183 3.43987C32.8088 3.43987 33.3351 3.68522 33.7618 4.17592V5.42401C33.2426 4.91197 32.7484 4.65596 32.279 4.65596C32.0159 4.65596 31.8025 4.75552 31.6389 4.95464C31.4754 5.14666 31.3936 5.39912 31.3936 5.71203C31.3936 6.18851 31.5465 6.57965 31.8523 6.88545C31.9021 6.88545 31.9803 6.88189 32.087 6.87478C32.1652 6.87478 32.2292 6.87122 32.279 6.86411C33.0826 6.81433 33.7724 6.59743 34.3485 6.2134L34.3378 7.42949C33.7404 7.8633 32.9297 8.0802 31.9056 8.0802C30.9313 8.0802 30.1206 8.31133 29.4735 8.77358ZM42.0396 6.78944H42.9997V8.0802H41.9116C41.3569 8.0802 40.9053 7.92374 40.5568 7.61083C40.1657 7.92374 39.6857 8.0802 39.1167 8.0802H35.0951L35.7672 6.78944H37.1753V3.30119L38.5194 2.58647V6.78944H39.0421C39.3692 6.78944 39.6003 6.71832 39.7354 6.57609C39.8777 6.43386 39.9488 6.19206 39.9488 5.85071V1.91443L41.2929 1.19971V6.02139C41.2929 6.29874 41.3498 6.49786 41.4636 6.61876C41.5774 6.73255 41.7694 6.78944 42.0396 6.78944ZM49.1489 6.78944H50.0983V8.0802H49.0102C48.4982 8.0802 48.0786 7.94864 47.7514 7.68551C47.3674 8.09087 46.8625 8.29355 46.2367 8.29355C45.5966 8.29355 45.0917 8.09087 44.7219 7.68551C44.3805 7.94864 43.9574 8.0802 43.4525 8.0802H42.3644V6.78944H43.3244C43.5947 6.78944 43.7867 6.73255 43.9005 6.61876C44.0143 6.49786 44.0712 6.29874 44.0712 6.02139V5.71203C44.0712 4.87997 44.2881 4.23281 44.7219 3.77056C45.0988 3.3652 45.6037 3.16251 46.2367 3.16251C46.9549 3.16251 47.5096 3.42564 47.9008 3.9519C48.2279 4.39994 48.3915 4.98665 48.3915 5.71203V6.02139C48.3915 6.29874 48.4484 6.49786 48.5622 6.61876C48.6831 6.73255 48.8786 6.78944 49.1489 6.78944ZM46.2367 7.00279C46.7771 7.00279 47.0474 6.56187 47.0474 5.68003C47.0474 4.83375 46.7771 4.4106 46.2367 4.4106C45.6891 4.4106 45.4153 4.83375 45.4153 5.68003C45.4153 6.56187 45.6891 7.00279 46.2367 7.00279ZM54.6963 6.78944H57.6299L57.6512 8.0802H54.5683C54.2056 8.0802 53.8643 7.9913 53.5443 7.81351C53.21 7.9913 52.8687 8.0802 52.5202 8.0802H49.4586V6.78944H52.3602C52.0402 6.56898 51.7735 6.35919 51.5601 6.16006C51.4392 6.05339 51.2543 5.85426 51.0054 5.56269C50.9272 5.47024 50.8632 5.39556 50.8134 5.33867V4.73063C51.1263 4.25415 51.5281 3.87368 52.0188 3.58921C52.5166 3.30475 53.0251 3.16251 53.5443 3.16251C54.0563 3.16251 54.5612 3.3083 55.059 3.59988C55.5569 3.88434 55.9693 4.26837 56.2965 4.75196V5.33867C55.82 5.91471 55.2866 6.3983 54.6963 6.78944ZM53.5336 6.2774C54.067 5.85782 54.4617 5.43468 54.7177 5.00798C54.291 4.60973 53.8892 4.4106 53.5123 4.4106C53.1496 4.4106 52.7727 4.60973 52.3815 5.00798C52.6589 5.49868 53.0429 5.92182 53.5336 6.2774ZM57.0113 8.0802V6.78944H57.6833C58.0104 6.78944 58.2416 6.71832 58.3767 6.57609C58.5189 6.43386 58.59 6.19206 58.59 5.85071V1.91443L59.9235 1.19971V5.86137C59.9235 6.5512 59.7137 7.10235 59.2941 7.51483C58.9101 7.89174 58.398 8.0802 57.758 8.0802H57.0113ZM61.8437 8.0802V1.91443L63.1878 1.19971V8.0802H61.8437ZM68.4137 2.0531C68.2004 2.0531 68.0297 1.9891 67.9017 1.86109C67.7737 1.73308 67.7097 1.55884 67.7097 1.33838C67.7097 0.876129 67.9444 0.645001 68.4137 0.645001C68.6271 0.645001 68.7942 0.709006 68.9151 0.837015C69.0431 0.957912 69.1071 1.12504 69.1071 1.33838C69.1071 1.81486 68.876 2.0531 68.4137 2.0531ZM70.0565 2.0531C69.8432 2.0531 69.6725 1.9891 69.5445 1.86109C69.4165 1.73308 69.3525 1.55884 69.3525 1.33838C69.3525 0.876129 69.5872 0.645001 70.0565 0.645001C70.2699 0.645001 70.437 0.709006 70.5579 0.837015C70.6859 0.957912 70.7499 1.12504 70.7499 1.33838C70.7499 1.81486 70.5188 2.0531 70.0565 2.0531ZM71.8593 6.78944H72.8194V8.0802H71.7313C71.0699 8.0802 70.5579 7.85974 70.1952 7.41882C69.8894 7.6535 69.516 7.77084 69.0751 7.77084C68.4209 7.77084 67.8982 7.52549 67.507 7.03479C67.187 6.62943 67.027 6.14228 67.027 5.57335C67.027 4.8693 67.2545 4.29682 67.7097 3.8559C68.0937 3.48609 68.5382 3.30119 69.0431 3.30119C69.3063 3.30119 69.548 3.35097 69.7685 3.45054V3.17318L71.1019 2.46913V6.02139C71.1019 6.29874 71.1588 6.49786 71.2726 6.61876C71.3935 6.73255 71.5891 6.78944 71.8593 6.78944ZM69.7685 4.79463C69.5836 4.63818 69.3738 4.55995 69.1391 4.55995C68.9044 4.55995 68.7124 4.65596 68.5631 4.84797C68.4209 5.03998 68.3497 5.29244 68.3497 5.60536C68.3497 5.91827 68.4209 6.16717 68.5631 6.35208C68.7053 6.53698 68.9009 6.62943 69.1498 6.62943C69.42 6.62943 69.6298 6.53698 69.7792 6.35208C69.7721 6.29518 69.7685 6.20629 69.7685 6.08539V4.79463ZM73.8858 5.13599C73.8858 4.49594 74.0849 3.99457 74.4832 3.63188C74.8316 3.31897 75.2797 3.16251 75.8273 3.16251C76.5313 3.16251 77.0789 3.42209 77.4701 3.94124C77.8043 4.37505 77.9714 4.93331 77.9714 5.61602C77.9714 6.40541 77.7616 7.02768 77.342 7.48282C76.9651 7.88107 76.4851 8.0802 75.9019 8.0802C75.333 8.0802 74.8672 7.95575 74.5045 7.70684C74.1632 7.95575 73.7507 8.0802 73.2671 8.0802H72.179V6.78944H73.1391C73.4093 6.78944 73.6013 6.73255 73.7151 6.61876C73.8289 6.49786 73.8858 6.29874 73.8858 6.02139V5.13599ZM75.2299 6.19207C75.2299 6.59032 75.4397 6.78944 75.8593 6.78944C76.3855 6.78944 76.6487 6.38408 76.6487 5.57335C76.6487 4.79819 76.3749 4.4106 75.8273 4.4106C75.429 4.4106 75.2299 4.64529 75.2299 5.11465V6.19207ZM78.877 8.0802L79.549 6.78944H81.2345C81.5972 6.78944 81.7785 6.57965 81.7785 6.16006C81.7785 5.37778 81.4016 4.77685 80.6478 4.35727L81.3092 3.21585C82.4186 3.86301 83.016 4.74129 83.1013 5.85071C83.1297 6.20629 83.208 6.45164 83.336 6.58676C83.4711 6.72188 83.6987 6.78944 84.0187 6.78944H84.8294V8.0802H83.944C83.4178 8.0802 82.9733 7.93441 82.6106 7.64284C82.3475 7.93441 81.9705 8.0802 81.4798 8.0802H78.877ZM87.4972 2.26645C87.2838 2.26645 87.1132 2.20245 86.9852 2.07444C86.8571 1.94643 86.7931 1.77219 86.7931 1.55173C86.7931 1.3455 86.8571 1.17837 86.9852 1.05036C87.1132 0.922354 87.2838 0.85835 87.4972 0.85835C87.7105 0.85835 87.8777 0.922354 87.9986 1.05036C88.1266 1.17126 88.1906 1.33838 88.1906 1.55173C88.1906 2.02821 87.9594 2.26645 87.4972 2.26645ZM84.1903 8.0802V6.78944H85.7797C87.0314 6.78944 88.027 6.41608 88.7666 5.66936C88.283 4.82308 87.6963 4.39994 87.0065 4.39994C86.4376 4.39994 85.8153 4.70929 85.1397 5.328V4.14392C85.7371 3.48965 86.4127 3.16251 87.1665 3.16251C87.7212 3.16251 88.2617 3.3652 88.788 3.77056C89.3142 4.17592 89.78 4.75196 90.1854 5.49868V6.03205C89.6733 6.68632 89.0333 7.19125 88.2652 7.54683C87.5043 7.90241 86.6722 8.0802 85.7691 8.0802H84.1903ZM95.4153 2.26645C95.2019 2.26645 95.0312 2.20245 94.9032 2.07444C94.7752 1.94643 94.7112 1.77219 94.7112 1.55173C94.7112 1.3455 94.7752 1.17837 94.9032 1.05036C95.0312 0.922354 95.2019 0.85835 95.4153 0.85835C95.6286 0.85835 95.7957 0.922354 95.9166 1.05036C96.0446 1.17126 96.1086 1.33838 96.1086 1.55173C96.1086 2.02821 95.8775 2.26645 95.4153 2.26645ZM96.9194 6.78944H97.8794V8.0802H96.7914C96.5496 8.0802 96.3255 8.0482 96.1193 7.98419C96.0269 8.66691 95.7531 9.20739 95.2979 9.60564C94.8854 9.96122 94.3912 10.139 93.8151 10.139C93.3671 10.139 92.9298 10.0252 92.5031 9.79766V8.62424C92.8729 8.83048 93.2356 8.93359 93.5911 8.93359C93.9823 8.93359 94.2845 8.80559 94.4979 8.54957C94.7183 8.30066 94.8286 7.95219 94.8286 7.50416V4.04791L95.7033 3.58921L96.162 3.34386V3.35453L96.1727 3.34386V6.02139C96.1727 6.29874 96.2295 6.49786 96.3433 6.61876C96.4571 6.73255 96.6491 6.78944 96.9194 6.78944ZM99.7502 3.37586C100.284 3.41853 100.753 3.57854 101.158 3.8559C101.884 4.3466 102.246 5.05421 102.246 5.97872V6.11739C102.246 6.75744 102.047 7.25881 101.649 7.6215C101.3 7.9273 100.849 8.0802 100.294 8.0802H97.2433V6.78944H100.156C100.653 6.78944 100.902 6.54409 100.902 6.05339V5.98938C100.902 5.60536 100.753 5.29245 100.454 5.05065C100.163 4.80885 99.7786 4.68796 99.3021 4.68796C98.9465 4.68796 98.5696 4.75907 98.1714 4.90131V3.61055L100.337 1.19971H101.692L99.7502 3.37586ZM106.524 6.78944H107.484V8.0802H106.396C106.154 8.0802 105.93 8.0482 105.724 7.98419C105.632 8.66691 105.358 9.20739 104.903 9.60564C104.49 9.96122 103.996 10.139 103.42 10.139C102.972 10.139 102.535 10.0252 102.108 9.79766V8.62424C102.478 8.83048 102.84 8.93359 103.196 8.93359C103.587 8.93359 103.889 8.80559 104.103 8.54957C104.323 8.30066 104.433 7.95219 104.433 7.50416V4.04791L105.308 3.58921L105.767 3.34386V3.35453L105.778 3.34386V6.02139C105.778 6.29874 105.834 6.49786 105.948 6.61876C106.062 6.73255 106.254 6.78944 106.524 6.78944ZM108.555 5.13599C108.555 4.49594 108.754 3.99457 109.152 3.63188C109.501 3.31897 109.949 3.16251 110.496 3.16251C111.2 3.16251 111.748 3.42209 112.139 3.94124C112.473 4.37505 112.641 4.93331 112.641 5.61602C112.641 6.40541 112.431 7.02768 112.011 7.48282C111.634 7.88107 111.154 8.0802 110.571 8.0802C110.002 8.0802 109.536 7.95575 109.174 7.70684C108.832 7.95575 108.42 8.0802 107.936 8.0802H106.848V6.78944H107.808C108.078 6.78944 108.27 6.73255 108.384 6.61876C108.498 6.49786 108.555 6.29874 108.555 6.02139V5.13599ZM109.899 6.19207C109.899 6.59032 110.109 6.78944 110.528 6.78944C111.055 6.78944 111.318 6.38408 111.318 5.57335C111.318 4.79819 111.044 4.4106 110.496 4.4106C110.098 4.4106 109.899 4.64529 109.899 5.11465V6.19207Z" fill="#E1E1E1"/>
<g clip-path="url(#clip0_3489_52132)">
<g clip-path="url(#clip1_3489_52132)">
<path d="M22.5545 19.8738L17.6143 17.3619C17.4033 17.2552 17.1687 17.2328 16.946 17.2979C16.7233 17.363 16.5244 17.5122 16.3793 17.723L14.1915 20.8942C10.7579 18.9736 7.99473 15.6954 6.37585 11.6219L9.04884 9.02637C9.2269 8.85456 9.35293 8.61861 9.40784 8.35423C9.46276 8.08984 9.44357 7.81143 9.35319 7.56114L7.23597 1.70023C7.13677 1.43043 6.96133 1.21014 6.7399 1.07735C6.51847 0.94457 6.26492 0.907612 6.02298 0.972853L1.43566 2.22876C1.2024 2.29267 0.994281 2.44848 0.845277 2.67078C0.696273 2.89308 0.615181 3.16873 0.615234 3.45275C0.615234 16.8753 9.78546 27.7337 21.0817 27.7337C21.3212 27.7339 21.5537 27.6377 21.7411 27.4609C21.9286 27.2841 22.06 27.0372 22.1139 26.7603L23.1725 21.3181C23.2271 21.0296 23.1953 20.7276 23.0825 20.464C22.9697 20.2004 22.783 19.9917 22.5545 19.8738Z" fill="#E1E1E1"/>
</g>
</g>
<defs>
<clipPath id="clip0_3489_52132">
<rect width="22.5837" height="26.7928" fill="white" transform="translate(0.615234 1.47485)"/>
</clipPath>
<clipPath id="clip1_3489_52132">
<rect width="22.5837" height="26.7927" fill="white" transform="translate(0.615234 0.940918)"/>
</clipPath>
</defs>
</svg>
