<svg width="467" height="123" viewBox="0 0 467 123" fill="none" xmlns="http://www.w3.org/2000/svg">
<path fill-rule="evenodd" clip-rule="evenodd" d="M176.921 63.763L181.768 57.9399L177.663 54.2859C178.753 52.6789 179.303 50.7672 179.235 48.8268V13.3204C179.235 7.49734 176.062 4.5858 169.715 4.5858H152.566C150.194 4.47938 147.85 5.12659 145.869 6.43463C143.832 7.90182 142.68 10.3039 142.812 12.8109V48.9287C142.812 54.7518 145.985 57.6633 152.333 57.6633H169.642L176.921 63.763ZM167.515 14.3835V46.0611L161.881 41.0387L156.932 46.7017L160.819 50.0936H156.772C156.172 50.185 155.564 49.99 155.129 49.5668C154.695 49.1435 154.483 48.5411 154.559 47.9391V14.4563C154.559 12.884 155.243 12.0979 156.611 12.0979H165.637C166.889 12.0979 167.515 12.9277 167.515 14.3835Z" fill="url(#paint0_linear_3509_51718)"/>
<rect x="183.1" y="4.58459" width="37.9084" height="7.5118" fill="url(#paint1_linear_3509_51718)"/>
<rect x="240.166" y="4.58459" width="90.5783" height="7.5118" fill="url(#paint2_linear_3509_51718)"/>
<path fill-rule="evenodd" clip-rule="evenodd" d="M205.181 17.6869C210.844 17.6869 213.756 20.3801 213.756 25.7956L213.799 50.1216H216.711V57.6479H191.759C189.334 57.7759 186.97 56.8591 185.266 55.1294C183.797 53.5543 183.016 51.4587 183.097 49.3063V40.659C183.097 36.0588 185.907 33.7732 191.526 33.7732H202.386V25.155C202.386 23.874 201.833 23.2334 200.726 23.2334H196.359C195.107 23.2334 194.467 23.8157 194.467 25.0095V30.556H183.097V25.5481C183.097 20.3073 186.324 17.6869 192.778 17.6869H205.181ZM196.839 52.1155H202.385V38.14H196.722C195.252 38.14 194.509 38.7951 194.509 40.1053V49.7571C194.411 50.4025 194.624 51.0563 195.082 51.5207C195.541 51.9852 196.192 52.2057 196.839 52.1155Z" fill="url(#paint3_linear_3509_51718)"/>
<path d="M236.347 4.58459H224.846V17.6866H218.47V24.3686H225.036V48.811C225.036 54.6341 228.185 57.5457 234.484 57.5457H242.505C245.112 57.6912 247.688 56.9186 249.784 55.362C251.571 53.9084 252.564 51.6947 252.462 49.3933V43.8468H241.049V47.9084C241.049 49.3642 240.409 50.1503 239.128 50.1503H238.531C237.936 50.2472 237.331 50.0577 236.898 49.6391C236.466 49.2206 236.256 48.6221 236.333 48.0249V24.4122H252.462V17.7302H236.347V4.58459Z" fill="url(#paint4_linear_3509_51718)"/>
<path fill-rule="evenodd" clip-rule="evenodd" d="M277.707 17.6869C283.37 17.6869 286.282 20.3801 286.282 25.7956L286.326 50.1216H289.237V57.6479H264.329C261.904 57.7759 259.54 56.8591 257.836 55.1294C256.367 53.5543 255.586 51.4587 255.667 49.3063V40.659C255.667 36.0588 258.477 33.7732 264.096 33.7732H274.956V25.155C274.956 23.874 274.403 23.2334 273.296 23.2334H268.929C267.663 23.2334 267.037 23.8157 267.037 25.0095V30.556H255.623V25.5481C255.633 20.3073 258.86 17.6869 265.304 17.6869H277.707ZM269.371 52.1155H274.917V38.14H269.24C267.769 38.14 267.041 38.7951 267.041 40.1053V49.7571C266.943 50.4025 267.156 51.0563 267.614 51.5207C268.073 51.9852 268.724 52.2057 269.371 52.1155Z" fill="url(#paint5_linear_3509_51718)"/>
<path d="M319.185 17.6429C316.745 17.7574 314.379 18.5158 312.328 19.8411C310.648 20.7715 309.121 21.9548 307.801 23.3496V17.6866H293.01V24.3686H296.795V50.063H293.01V57.5894H311.469V50.063H307.801V31.6184C308.622 30.2622 309.599 29.0066 310.712 27.877C312.401 26.1155 313.624 25.2421 314.264 25.2421C314.461 25.2152 314.657 25.2991 314.774 25.4604C314.874 25.7852 314.914 26.1258 314.89 26.4649V39.4067H326.42V24.2085C326.494 22.4091 325.782 20.6664 324.469 19.4335C323.004 18.179 321.111 17.5377 319.185 17.6429Z" fill="url(#paint6_linear_3509_51718)"/>
<path fill-rule="evenodd" clip-rule="evenodd" d="M396.5 17.6864C402.163 17.6864 405.074 20.3796 405.074 25.795L405.118 50.121H408.029V57.6474H383.107C380.682 57.7754 378.318 56.8585 376.614 55.1289C375.15 53.5514 374.375 51.4561 374.459 49.3058V40.6585C374.459 36.0582 377.254 33.7727 382.874 33.7727H393.734V25.1545C393.734 23.8734 393.181 23.2329 392.089 23.2329H387.721C386.469 23.2329 385.829 23.8152 385.829 25.0089V30.5554H374.43V25.5476C374.42 20.3068 377.647 17.6864 384.111 17.6864H396.5ZM388.151 52.1149H393.698V38.1395H388.035C386.565 38.1395 385.822 38.7946 385.822 40.1048V49.7566C385.73 50.4006 385.945 51.0505 386.402 51.5134C386.859 51.9762 387.506 52.1988 388.151 52.1149Z" fill="url(#paint7_linear_3509_51718)"/>
<path d="M426.909 50.0627V4.58427H343.93C337.554 4.58427 334.366 7.49582 334.366 13.3189V23.3638C334.366 27.4836 335.923 30.1913 339.01 31.5015L356.333 38.9842C358.051 39.6119 359.152 41.2933 359.041 43.1186V47.9081C359.041 49.3639 358.299 50.0627 356.799 50.0627H348.065C346.696 50.0627 346.012 49.3057 346.012 47.7917V39.9596H334.278V49.3639C334.175 51.6685 335.149 53.8904 336.913 55.3762C339.037 56.9458 341.644 57.7187 344.28 57.5599H361.079C363.735 57.7539 366.358 56.8727 368.358 55.1142C369.963 53.4089 370.8 51.1202 370.673 48.7816V38.7513C370.673 34.5441 369.217 31.8364 366.422 30.599L349.2 23.16C347.376 22.5932 346.132 20.9067 346.128 18.9964V14.2361C346.052 13.6273 346.267 13.0181 346.708 12.5915C347.148 12.1649 347.764 11.9706 348.37 12.067H415.583V50.0336H411.798V57.5599H430.622V50.0336L426.909 50.0627Z" fill="url(#paint8_linear_3509_51718)"/>
<path fill-rule="evenodd" clip-rule="evenodd" d="M466.556 4.58459V12.0964H433.67V4.58459H466.556ZM466.555 40.7453H445.083V49.9458C445.002 50.5501 445.211 51.157 445.646 51.5837C446.082 52.0105 446.693 52.2073 447.295 52.1149H453.118C454.487 52.1149 455.171 51.3724 455.171 49.873V44.5157H466.686V49.4363C466.778 51.7451 465.767 53.9602 463.964 55.4049C461.864 56.9537 459.291 57.7255 456.685 57.5886H443.263C440.64 57.7683 438.058 56.8691 436.115 55.0992C434.469 53.4335 433.607 51.148 433.742 48.8103V25.9109C433.61 23.4124 434.77 21.021 436.814 19.5783C438.788 18.2512 441.134 17.5882 443.51 17.6858H457.165C463.513 17.6858 466.686 20.5052 466.686 26.1439L466.555 40.7453ZM455.2 25.5633V36.2632H445.083V25.5924C445.083 24.0201 445.767 23.234 447.135 23.234H453.308C454.574 23.234 455.2 24.0056 455.2 25.5633Z" fill="url(#paint9_linear_3509_51718)"/>
<path d="M156.525 105.137H151.682V118.309H148.424V105.137H143.646V102.498H156.525V105.137Z" fill="url(#paint10_linear_3509_51718)"/>
<path d="M172.262 118.309H169.004V111.533H162.652V118.309H159.394V102.498H162.652V108.905H169.004V102.498H172.262V118.309Z" fill="url(#paint11_linear_3509_51718)"/>
<path d="M185.632 111.457H179.377V115.692H186.718V118.309H176.119V102.498H186.696V105.137H179.377V108.905H185.632V111.457Z" fill="url(#paint12_linear_3509_51718)"/>
<path d="M200.426 102.498L204.487 113.966L208.527 102.498H212.806V118.309H209.537V113.987L209.863 106.527L205.595 118.309H203.358L199.101 106.538L199.427 113.987V118.309H196.169V102.498H200.426Z" fill="url(#paint13_linear_3509_51718)"/>
<path d="M225.774 115.052H220.062L218.976 118.309H215.512L221.397 102.498H224.416L230.335 118.309H226.871L225.774 115.052ZM220.941 112.413H224.894L222.907 106.494L220.941 112.413Z" fill="url(#paint14_linear_3509_51718)"/>
<path d="M238.666 112.521H236.07V118.309H232.812V102.498H238.687C240.555 102.498 241.996 102.914 243.009 103.747C244.023 104.579 244.53 105.756 244.53 107.276C244.53 108.355 244.295 109.256 243.824 109.98C243.361 110.697 242.655 111.269 241.706 111.696L245.127 118.157V118.309H241.63L238.666 112.521ZM236.07 109.882H238.698C239.516 109.882 240.15 109.676 240.599 109.263C241.048 108.844 241.272 108.268 241.272 107.537C241.272 106.791 241.058 106.205 240.631 105.778C240.211 105.35 239.563 105.137 238.687 105.137H236.07V109.882Z" fill="url(#paint15_linear_3509_51718)"/>
<path d="M252.969 111.967L251.275 113.792V118.309H248.017V102.498H251.275V109.665L252.709 107.7L256.738 102.498H260.745L255.13 109.524L260.908 118.309H257.031L252.969 111.967Z" fill="url(#paint16_linear_3509_51718)"/>
<path d="M272.648 111.457H266.393V115.692H273.734V118.309H263.136V102.498H273.713V105.137H266.393V108.905H272.648V111.457Z" fill="url(#paint17_linear_3509_51718)"/>
<path d="M288.766 105.137H283.922V118.309H280.664V105.137H275.886V102.498H288.766V105.137Z" fill="url(#paint18_linear_3509_51718)"/>
<path d="M306.448 115.052H300.736L299.65 118.309H296.186L302.072 102.498H305.091L311.009 118.309H307.545L306.448 115.052ZM301.616 112.413H305.569L303.581 106.494L301.616 112.413Z" fill="url(#paint19_linear_3509_51718)"/>
<path d="M324.086 105.137H319.243V118.309H315.985V105.137H311.206V102.498H324.086V105.137Z" fill="url(#paint20_linear_3509_51718)"/>
<path d="M338.293 109.622L341.584 102.498H345.146L339.955 112.576V118.309H336.643V112.576L331.452 102.498H335.025L338.293 109.622Z" fill="url(#paint21_linear_3509_51718)"/>
<path d="M360.253 110.762C360.253 112.319 359.978 113.683 359.428 114.856C358.878 116.029 358.088 116.934 357.06 117.571C356.04 118.208 354.867 118.527 353.542 118.527C352.232 118.527 351.062 118.212 350.034 117.582C349.006 116.952 348.21 116.054 347.645 114.889C347.081 113.716 346.795 112.369 346.787 110.849V110.067C346.787 108.511 347.066 107.142 347.623 105.962C348.188 104.775 348.981 103.866 350.002 103.236C351.03 102.599 352.203 102.281 353.52 102.281C354.838 102.281 356.007 102.599 357.028 103.236C358.056 103.866 358.849 104.775 359.406 105.962C359.971 107.142 360.253 108.507 360.253 110.056V110.762ZM356.952 110.045C356.952 108.387 356.655 107.128 356.061 106.266C355.468 105.405 354.621 104.974 353.52 104.974C352.427 104.974 351.584 105.401 350.99 106.255C350.396 107.102 350.096 108.348 350.089 109.991V110.762C350.089 112.376 350.385 113.629 350.979 114.519C351.573 115.41 352.427 115.855 353.542 115.855C354.635 115.855 355.475 115.428 356.061 114.574C356.648 113.712 356.945 112.46 356.952 110.816V110.045Z" fill="url(#paint22_linear_3509_51718)"/>
<path d="M375.588 102.498V112.912C375.588 114.642 375.045 116.011 373.959 117.017C372.881 118.023 371.404 118.527 369.529 118.527C367.683 118.527 366.217 118.038 365.131 117.061C364.045 116.083 363.491 114.74 363.469 113.032V102.498H366.727V112.934C366.727 113.969 366.973 114.726 367.465 115.204C367.965 115.674 368.653 115.909 369.529 115.909C371.36 115.909 372.291 114.947 372.32 113.021V102.498H375.588Z" fill="url(#paint23_linear_3509_51718)"/>
<path d="M385.114 112.521H382.518V118.309H379.261V102.498H385.136C387.003 102.498 388.444 102.914 389.458 103.747C390.471 104.579 390.978 105.756 390.978 107.276C390.978 108.355 390.743 109.256 390.272 109.98C389.809 110.697 389.103 111.269 388.154 111.696L391.575 118.157V118.309H388.078L385.114 112.521ZM382.518 109.882H385.146C385.964 109.882 386.598 109.676 387.047 109.263C387.496 108.844 387.72 108.268 387.72 107.537C387.72 106.791 387.507 106.205 387.079 105.778C386.66 105.35 386.012 105.137 385.136 105.137H382.518V109.882Z" fill="url(#paint24_linear_3509_51718)"/>
<path d="M413.873 118.309H410.615V111.533H404.263V118.309H401.005V102.498H404.263V108.905H410.615V102.498H413.873V118.309Z" fill="url(#paint25_linear_3509_51718)"/>
<path d="M430.718 110.762C430.718 112.319 430.443 113.683 429.893 114.856C429.342 116.029 428.553 116.934 427.525 117.571C426.504 118.208 425.332 118.527 424.007 118.527C422.696 118.527 421.527 118.212 420.499 117.582C419.471 116.952 418.675 116.054 418.11 114.889C417.545 113.716 417.259 112.369 417.252 110.849V110.067C417.252 108.511 417.531 107.142 418.088 105.962C418.653 104.775 419.446 103.866 420.467 103.236C421.495 102.599 422.667 102.281 423.985 102.281C425.303 102.281 426.472 102.599 427.493 103.236C428.521 103.866 429.313 104.775 429.871 105.962C430.436 107.142 430.718 108.507 430.718 110.056V110.762ZM427.417 110.045C427.417 108.387 427.12 107.128 426.526 106.266C425.933 105.405 425.086 104.974 423.985 104.974C422.892 104.974 422.048 105.401 421.455 106.255C420.861 107.102 420.561 108.348 420.553 109.991V110.762C420.553 112.376 420.85 113.629 421.444 114.519C422.038 115.41 422.892 115.855 424.007 115.855C425.1 115.855 425.94 115.428 426.526 114.574C427.113 113.712 427.409 112.46 427.417 110.816V110.045Z" fill="url(#paint26_linear_3509_51718)"/>
<path d="M438.343 102.498L442.404 113.966L446.444 102.498H450.723V118.309H447.454V113.987L447.78 106.527L443.512 118.309H441.275L437.018 106.538L437.344 113.987V118.309H434.086V102.498H438.343Z" fill="url(#paint27_linear_3509_51718)"/>
<path d="M464.082 111.457H457.827V115.692H465.168V118.309H454.569V102.498H465.146V105.137H457.827V108.905H464.082V111.457Z" fill="url(#paint28_linear_3509_51718)"/>
<path d="M158.529 71.8434C158.321 72.4133 158.131 72.8312 157.96 73.0971C157.808 73.363 157.665 73.534 157.532 73.61C157.437 73.667 157.257 73.7145 156.991 73.7525C156.725 73.7904 156.269 73.8094 155.623 73.8094C155.186 73.8094 154.702 73.8094 154.17 73.8094C153.638 73.7904 153.125 73.7715 152.631 73.7525C152.061 73.7335 151.492 73.7145 150.922 73.6955V71.53H152.175C152.023 71.302 151.9 71.0646 151.805 70.8176C151.729 70.5707 151.691 70.2667 151.691 69.9058C151.691 69.5259 151.777 69.146 151.947 68.7661C152.137 68.3862 152.394 68.0538 152.717 67.7688C153.04 67.4649 153.42 67.2179 153.857 67.028C154.312 66.838 154.797 66.743 155.31 66.743C155.709 66.743 156.098 66.7905 156.478 66.8855C156.877 66.9805 157.247 67.142 157.589 67.3699L156.734 69.6779C156.373 69.5259 156.06 69.4214 155.794 69.3645C155.528 69.3075 155.253 69.279 154.968 69.279C154.645 69.279 154.398 69.355 154.227 69.5069C154.056 69.6399 153.971 69.8014 153.971 69.9913C153.971 70.3712 154.122 70.6847 154.426 70.9316C154.73 71.1785 155.158 71.302 155.709 71.302C156.07 71.302 156.535 71.283 157.105 71.245C157.694 71.207 158.264 71.1405 158.814 71.0456L158.529 71.8434ZM158.273 82.6139C159.584 82.6139 160.486 82.367 160.98 81.8731C161.493 81.3792 161.749 80.5814 161.749 79.4797V65.2614H164.941V79.1092C164.941 80.021 164.865 80.7524 164.713 81.3032C164.58 81.8541 164.323 82.291 163.943 82.6139H167.79L168.645 83.4687V85.5488L167.79 86.4036H150.979C149.706 86.4036 148.614 86.2611 147.702 85.9762C146.809 85.6722 146.078 85.2543 145.508 84.7225C144.938 84.1716 144.52 83.5067 144.254 82.7279C143.988 81.9301 143.855 81.0468 143.855 80.078C143.855 79.1092 143.941 78.074 144.112 76.9722C144.302 75.8515 144.596 74.7022 144.995 73.5245L148.101 74.2653C147.721 75.3481 147.445 76.3169 147.275 77.1717C147.123 78.0265 147.047 78.8528 147.047 79.6506C147.047 80.1255 147.104 80.5434 147.218 80.9043C147.351 81.2652 147.588 81.5787 147.93 81.8446C148.291 82.0916 148.785 82.2815 149.412 82.4145C150.038 82.5475 150.855 82.6139 151.862 82.6139H158.273Z" fill="url(#paint29_linear_3509_51718)"/>
<path d="M170.614 82.6139L171.184 83.1838V85.8337L170.614 86.4036H167.793L167.223 85.8337V83.1838L167.793 82.6139H170.614Z" fill="url(#paint30_linear_3509_51718)"/>
<path d="M173.424 82.6139L173.994 83.1838V85.8337L173.424 86.4036H170.604L170.034 85.8337V83.1838L170.604 82.6139H173.424Z" fill="url(#paint31_linear_3509_51718)"/>
<path d="M176.235 82.6139L176.805 83.1838V85.8337L176.235 86.4036H173.414L172.844 85.8337V83.1838L173.414 82.6139H176.235Z" fill="url(#paint32_linear_3509_51718)"/>
<path d="M179.045 82.6139L179.615 83.1838V85.8337L179.045 86.4036H176.224L175.655 85.8337V83.1838L176.224 82.6139H179.045Z" fill="url(#paint33_linear_3509_51718)"/>
<path d="M181.856 82.6139L182.426 83.1838V85.8337L181.856 86.4036H179.035L178.465 85.8337V83.1838L179.035 82.6139H181.856Z" fill="url(#paint34_linear_3509_51718)"/>
<path d="M184.666 82.6139L185.236 83.1838V85.8337L184.666 86.4036H181.845L181.275 85.8337V83.1838L181.845 82.6139H184.666Z" fill="url(#paint35_linear_3509_51718)"/>
<path d="M187.476 82.6139L188.046 83.1838V85.8337L187.476 86.4036H184.656L184.086 85.8337V83.1838L184.656 82.6139H187.476Z" fill="url(#paint36_linear_3509_51718)"/>
<path d="M190.287 82.6139L190.857 83.1838V85.8337L190.287 86.4036H187.466L186.896 85.8337V83.1838L187.466 82.6139H190.287Z" fill="url(#paint37_linear_3509_51718)"/>
<path d="M193.097 82.6139L193.667 83.1838V85.8337L193.097 86.4036H190.276L189.707 85.8337V83.1838L190.276 82.6139H193.097Z" fill="url(#paint38_linear_3509_51718)"/>
<path d="M195.908 82.6139L196.478 83.1838V85.8337L195.908 86.4036H193.087L192.517 85.8337V83.1838L193.087 82.6139H195.908Z" fill="url(#paint39_linear_3509_51718)"/>
<path d="M198.718 82.6139L199.288 83.1838V85.8337L198.718 86.4036H195.897L195.327 85.8337V83.1838L195.897 82.6139H198.718Z" fill="url(#paint40_linear_3509_51718)"/>
<path d="M201.528 82.6139L202.098 83.1838V85.8337L201.528 86.4036H198.708L198.138 85.8337V83.1838L198.708 82.6139H201.528Z" fill="url(#paint41_linear_3509_51718)"/>
<path d="M204.339 82.6139L204.909 83.1838V85.8337L204.339 86.4036H201.518L200.948 85.8337V83.1838L201.518 82.6139H204.339Z" fill="url(#paint42_linear_3509_51718)"/>
<path d="M207.149 82.6139L207.719 83.1838V85.8337L207.149 86.4036H204.328L203.758 85.8337V83.1838L204.328 82.6139H207.149Z" fill="url(#paint43_linear_3509_51718)"/>
<path d="M209.96 82.6139L210.529 83.1838V85.8337L209.96 86.4036H207.139L206.569 85.8337V83.1838L207.139 82.6139H209.96Z" fill="url(#paint44_linear_3509_51718)"/>
<path d="M212.77 82.6139L213.34 83.1838V85.8337L212.77 86.4036H209.949L209.379 85.8337V83.1838L209.949 82.6139H212.77Z" fill="url(#paint45_linear_3509_51718)"/>
<path d="M215.58 82.6139L216.15 83.1838V85.8337L215.58 86.4036H212.76L212.19 85.8337V83.1838L212.76 82.6139H215.58Z" fill="url(#paint46_linear_3509_51718)"/>
<path d="M218.391 82.6139L218.961 83.1838V85.8337L218.391 86.4036H215.57L215 85.8337V83.1838L215.57 82.6139H218.391Z" fill="url(#paint47_linear_3509_51718)"/>
<path d="M229.835 83.4687V85.5488L228.98 86.4036H218.38L217.526 85.5488V83.4687L218.38 82.6139H219.178C220.489 82.6139 221.391 82.367 221.885 81.8731C222.398 81.3792 222.654 80.5814 222.654 79.4797V72.3278H225.846V79.1092C225.846 80.021 225.77 80.7524 225.618 81.3032C225.485 81.8541 225.228 82.291 224.848 82.6139H228.98L229.835 83.4687ZM220.261 68.3387C220.261 67.8638 220.422 67.4554 220.745 67.1135C221.087 66.7715 221.496 66.6006 221.971 66.6006C222.464 66.6006 222.882 66.7715 223.224 67.1135C223.566 67.4554 223.737 67.8638 223.737 68.3387C223.737 68.8326 223.566 69.241 223.224 69.5639C222.882 69.8868 222.464 70.0483 221.971 70.0483C221.496 70.0483 221.087 69.8868 220.745 69.5639C220.422 69.241 220.261 68.8326 220.261 68.3387ZM224.791 68.3387C224.791 67.8638 224.953 67.4554 225.276 67.1135C225.618 66.7715 226.026 66.6006 226.501 66.6006C226.995 66.6006 227.413 66.7715 227.755 67.1135C228.097 67.4554 228.268 67.8638 228.268 68.3387C228.268 68.8326 228.097 69.241 227.755 69.5639C227.413 69.8868 226.995 70.0483 226.501 70.0483C226.026 70.0483 225.618 69.8868 225.276 69.5639C224.953 69.241 224.791 68.8326 224.791 68.3387Z" fill="url(#paint48_linear_3509_51718)"/>
<path d="M240.436 83.4687V85.5488L239.582 86.4036H228.982L228.127 85.5488V83.4687L228.982 82.6139H229.78C231.09 82.6139 231.993 82.367 232.487 81.8731C233 81.3792 233.256 80.5814 233.256 79.4797V72.3278H236.447V79.1092C236.447 80.021 236.371 80.7524 236.219 81.3032C236.086 81.8541 235.83 82.291 235.45 82.6139H239.582L240.436 83.4687ZM229.637 89.8228C229.637 89.3479 229.799 88.9395 230.122 88.5976C230.464 88.2557 230.872 88.0847 231.347 88.0847C231.841 88.0847 232.259 88.2557 232.601 88.5976C232.943 88.9395 233.113 89.3479 233.113 89.8228C233.113 90.3167 232.943 90.7251 232.601 91.048C232.259 91.371 231.841 91.5324 231.347 91.5324C230.872 91.5324 230.464 91.371 230.122 91.048C229.799 90.7251 229.637 90.3167 229.637 89.8228ZM234.168 89.8228C234.168 89.3479 234.329 88.9395 234.652 88.5976C234.994 88.2557 235.402 88.0847 235.877 88.0847C236.371 88.0847 236.789 88.2557 237.131 88.5976C237.473 88.9395 237.644 89.3479 237.644 89.8228C237.644 90.3167 237.473 90.7251 237.131 91.048C236.789 91.371 236.371 91.5324 235.877 91.5324C235.402 91.5324 234.994 91.371 234.652 91.048C234.329 90.7251 234.168 90.3167 234.168 89.8228Z" fill="url(#paint49_linear_3509_51718)"/>
<path d="M246.194 80.1635C246.194 81.0563 246.109 81.8921 245.938 82.6709C245.786 83.4308 245.491 84.0861 245.054 84.637C244.617 85.1879 244.019 85.6248 243.259 85.9477C242.499 86.2516 241.531 86.4036 240.353 86.4036H239.584L238.643 85.4633V83.5542L239.584 82.6139H240.951C241.787 82.6139 242.338 82.443 242.604 82.1011C242.87 81.7591 243.003 81.3127 243.003 80.7619V72.3278H246.194V80.1635ZM240.438 89.8228C240.438 89.3479 240.6 88.9395 240.923 88.5976C241.265 88.2557 241.673 88.0847 242.148 88.0847C242.642 88.0847 243.06 88.2557 243.402 88.5976C243.744 88.9395 243.915 89.3479 243.915 89.8228C243.915 90.3167 243.744 90.7251 243.402 91.048C243.06 91.371 242.642 91.5324 242.148 91.5324C241.673 91.5324 241.265 91.371 240.923 91.048C240.6 90.7251 240.438 90.3167 240.438 89.8228Z" fill="url(#paint50_linear_3509_51718)"/>
<path d="M258.349 79.0807C258.349 80.3914 258.435 81.4362 258.606 82.215C258.777 82.9749 259.071 83.5542 259.489 83.9531C259.907 84.352 260.467 84.6085 261.17 84.7225C261.892 84.8364 262.785 84.8934 263.849 84.8934H264.846C265.397 84.8934 265.862 84.8744 266.242 84.8364C266.622 84.7794 266.926 84.6845 267.154 84.5515C267.382 84.3995 267.543 84.1906 267.638 83.9246C267.733 83.6397 267.781 83.2693 267.781 82.8134V77.941C267.781 76.9722 267.876 76.0984 268.066 75.3196C268.275 74.5218 268.598 73.8474 269.034 73.2966C269.49 72.7267 270.079 72.2898 270.801 71.9859C271.523 71.6819 272.416 71.53 273.479 71.53C274.524 71.53 275.408 71.6154 276.129 71.7864C276.851 71.9384 277.516 72.1378 278.124 72.3848V79.5936C278.124 80.2585 278.152 80.7904 278.209 81.1893C278.285 81.5882 278.418 81.8921 278.608 82.1011C278.798 82.31 279.064 82.4525 279.406 82.5285C279.748 82.5855 280.185 82.6139 280.717 82.6139H281.287L281.971 83.2978V85.7197L281.287 86.4036H280.831C278.722 86.4036 277.212 85.9097 276.3 84.9219C275.389 83.9151 274.933 82.348 274.933 80.2205V75.6615C274.705 75.5665 274.41 75.4906 274.049 75.4336C273.707 75.3576 273.404 75.3196 273.138 75.3196C272.758 75.3196 272.435 75.3481 272.169 75.4051C271.903 75.4431 271.684 75.5381 271.513 75.69C271.342 75.842 271.209 76.0699 271.115 76.3739C271.039 76.6588 271.001 77.0577 271.001 77.5706V82.386C271.001 83.4688 270.887 84.409 270.659 85.2069C270.431 86.0047 270.041 86.66 269.49 87.1729C268.958 87.6858 268.246 88.0657 267.353 88.3126C266.48 88.5596 265.387 88.6831 264.077 88.6831H263.022C261.826 88.6831 260.743 88.5216 259.774 88.1987C258.805 87.8757 257.979 87.3439 257.295 86.603C256.611 85.8622 256.079 84.9029 255.7 83.7252C255.339 82.5285 255.158 81.0658 255.158 79.3372C255.158 78.7103 255.187 78.0645 255.244 77.3996C255.32 76.7348 255.443 76.0414 255.614 75.3196L258.72 75.8895C258.606 76.4403 258.511 76.9817 258.435 77.5136C258.378 78.0265 258.349 78.5489 258.349 79.0807ZM259.803 92.1023C259.803 91.6274 259.964 91.219 260.287 90.8771C260.629 90.5351 261.037 90.3642 261.512 90.3642C262.006 90.3642 262.424 90.5351 262.766 90.8771C263.108 91.219 263.279 91.6274 263.279 92.1023C263.279 92.5962 263.108 93.0046 262.766 93.3275C262.424 93.6504 262.006 93.8119 261.512 93.8119C261.037 93.8119 260.629 93.6504 260.287 93.3275C259.964 93.0046 259.803 92.5962 259.803 92.1023ZM264.333 92.1023C264.333 91.6274 264.495 91.219 264.817 90.8771C265.159 90.5351 265.568 90.3642 266.043 90.3642C266.537 90.3642 266.954 90.5351 267.296 90.8771C267.638 91.219 267.809 91.6274 267.809 92.1023C267.809 92.5962 267.638 93.0046 267.296 93.3275C266.954 93.6504 266.537 93.8119 266.043 93.8119C265.568 93.8119 265.159 93.6504 264.817 93.3275C264.495 93.0046 264.333 92.5962 264.333 92.1023Z" fill="url(#paint51_linear_3509_51718)"/>
<path d="M284.115 82.6139L284.685 83.1838V85.8337L284.115 86.4036H281.294L280.724 85.8337V83.1838L281.294 82.6139H284.115Z" fill="url(#paint52_linear_3509_51718)"/>
<path d="M286.926 82.6139L287.495 83.1838V85.8337L286.926 86.4036H284.105L283.535 85.8337V83.1838L284.105 82.6139H286.926Z" fill="url(#paint53_linear_3509_51718)"/>
<path d="M289.736 82.6139L290.306 83.1838V85.8337L289.736 86.4036H286.915L286.345 85.8337V83.1838L286.915 82.6139H289.736Z" fill="url(#paint54_linear_3509_51718)"/>
<path d="M292.546 82.6139L293.116 83.1838V85.8337L292.546 86.4036H289.725L289.156 85.8337V83.1838L289.725 82.6139H292.546Z" fill="url(#paint55_linear_3509_51718)"/>
<path d="M295.357 82.6139L295.927 83.1838V85.8337L295.357 86.4036H292.536L291.966 85.8337V83.1838L292.536 82.6139H295.357Z" fill="url(#paint56_linear_3509_51718)"/>
<path d="M298.167 82.6139L298.737 83.1838V85.8337L298.167 86.4036H295.346L294.776 85.8337V83.1838L295.346 82.6139H298.167Z" fill="url(#paint57_linear_3509_51718)"/>
<path d="M300.977 82.6139L301.547 83.1838V85.8337L300.977 86.4036H298.157L297.587 85.8337V83.1838L298.157 82.6139H300.977Z" fill="url(#paint58_linear_3509_51718)"/>
<path d="M303.788 82.6139L304.358 83.1838V85.8337L303.788 86.4036H300.967L300.397 85.8337V83.1838L300.967 82.6139H303.788Z" fill="url(#paint59_linear_3509_51718)"/>
<path d="M306.598 82.6139L307.168 83.1838V85.8337L306.598 86.4036H303.777L303.208 85.8337V83.1838L303.777 82.6139H306.598Z" fill="url(#paint60_linear_3509_51718)"/>
<path d="M309.409 82.6139L309.979 83.1838V85.8337L309.409 86.4036H306.588L306.018 85.8337V83.1838L306.588 82.6139H309.409Z" fill="url(#paint61_linear_3509_51718)"/>
<path d="M312.219 82.6139L312.789 83.1838V85.8337L312.219 86.4036H309.398L308.828 85.8337V83.1838L309.398 82.6139H312.219Z" fill="url(#paint62_linear_3509_51718)"/>
<path d="M312.209 82.6139H316.283C317.1 82.6139 317.793 82.5949 318.363 82.557C318.933 82.5 319.304 82.424 319.474 82.329C318.563 82.196 317.746 82.0251 317.024 81.8161C316.302 81.5882 315.685 81.2937 315.172 80.9328C314.678 80.5529 314.298 80.0875 314.032 79.5366C313.766 78.9858 313.633 78.3019 313.633 77.4851C313.633 76.5163 313.795 75.5475 314.118 74.5788C314.441 73.591 314.878 72.7077 315.428 71.9289C315.998 71.15 316.654 70.5232 317.394 70.0483C318.154 69.5544 318.952 69.3075 319.788 69.3075C320.719 69.3075 321.555 69.5639 322.295 70.0768C323.036 70.5707 323.663 71.2355 324.176 72.0713C324.708 72.8882 325.107 73.8284 325.373 74.8922C325.658 75.937 325.8 77.0102 325.8 78.112C325.8 80.8663 324.85 82.9369 322.951 84.3236C321.07 85.7102 318.449 86.4036 315.086 86.4036H312.209L311.639 85.8337V83.1838L312.209 82.6139ZM320.415 79.2802C320.662 79.3182 320.909 79.3562 321.156 79.3942C321.403 79.4322 321.63 79.4702 321.839 79.5081C322.067 79.5461 322.295 79.5746 322.523 79.5936C322.561 79.4417 322.58 79.2992 322.58 79.1662C322.58 79.0143 322.58 78.9098 322.58 78.8528C322.58 77.846 322.495 76.9817 322.324 76.2599C322.153 75.5191 321.915 74.9207 321.611 74.4648C321.327 73.9899 320.994 73.648 320.614 73.439C320.253 73.2111 319.873 73.0971 319.474 73.0971C319.114 73.0971 318.772 73.2111 318.449 73.439C318.126 73.648 317.841 73.9329 317.594 74.2938C317.366 74.6358 317.176 75.0347 317.024 75.4906C316.891 75.9275 316.825 76.3739 316.825 76.8298C316.825 77.1717 316.882 77.4756 316.996 77.7416C317.11 77.9885 317.299 78.2069 317.565 78.3969C317.85 78.5869 318.221 78.7578 318.677 78.9098C319.133 79.0428 319.712 79.1662 320.415 79.2802ZM317.85 65.6033C317.85 65.1284 318.012 64.72 318.335 64.3781C318.677 64.0362 319.085 63.8652 319.56 63.8652C320.054 63.8652 320.472 64.0362 320.814 64.3781C321.156 64.72 321.327 65.1284 321.327 65.6033C321.327 66.0972 321.156 66.5056 320.814 66.8285C320.472 67.1515 320.054 67.3129 319.56 67.3129C319.085 67.3129 318.677 67.1515 318.335 66.8285C318.012 66.5056 317.85 66.0972 317.85 65.6033Z" fill="url(#paint63_linear_3509_51718)"/>
<path d="M353.928 83.0129C353.928 89.7753 350.481 93.1565 343.585 93.1565C341.781 93.1565 340.29 92.9666 339.112 92.5867C337.934 92.2258 336.994 91.7129 336.291 91.048C335.588 90.3832 335.094 89.5854 334.809 88.6546C334.524 87.7428 334.382 86.736 334.382 85.6343C334.382 85.0074 334.42 84.3236 334.496 83.5827C334.572 82.8229 334.714 82.0156 334.923 81.1608L338.058 81.7591C337.963 82.1201 337.887 82.443 337.83 82.7279C337.773 83.0129 337.725 83.2883 337.687 83.5542C337.649 83.8202 337.621 84.0956 337.602 84.3805C337.583 84.6465 337.573 84.9314 337.573 85.2353C337.573 85.9382 337.659 86.546 337.83 87.0589C338.02 87.5908 338.352 88.0277 338.827 88.3696C339.302 88.7116 339.948 88.9585 340.764 89.1105C341.6 89.2814 342.664 89.3669 343.956 89.3669C345.76 89.3669 347.157 89.1295 348.144 88.6546C349.151 88.1797 349.854 87.4293 350.253 86.4036H348.344C346.976 86.4036 345.808 86.2991 344.839 86.0902C343.889 85.8622 343.11 85.5298 342.503 85.0929C341.914 84.637 341.477 84.0861 341.192 83.4403C340.926 82.7754 340.793 81.9966 340.793 81.1038C340.793 79.8501 341.002 78.6533 341.42 77.5136C341.838 76.3739 342.37 75.3766 343.015 74.5218C343.68 73.648 344.421 72.9641 345.238 72.4702C346.055 71.9574 346.862 71.7009 347.66 71.7009C348.477 71.7009 349.256 71.9764 349.996 72.5272C350.756 73.0591 351.421 73.8189 351.991 74.8067C352.58 75.7945 353.045 76.9912 353.387 78.3969C353.748 79.7836 353.928 81.3222 353.928 83.0129ZM343.984 80.363C343.984 80.7619 344.06 81.1038 344.212 81.3887C344.383 81.6737 344.678 81.9111 345.095 82.1011C345.513 82.272 346.064 82.405 346.748 82.5C347.451 82.576 348.334 82.6139 349.398 82.6139H350.68C350.623 81.6262 350.5 80.6954 350.31 79.8216C350.12 78.9288 349.863 78.1595 349.54 77.5136C349.237 76.8488 348.876 76.3264 348.458 75.9465C348.059 75.5665 347.631 75.3766 347.176 75.3766C346.758 75.3766 346.359 75.5191 345.979 75.804C345.599 76.0699 345.257 76.4403 344.953 76.9152C344.668 77.3711 344.431 77.903 344.241 78.5109C344.07 79.0997 343.984 79.7171 343.984 80.363ZM343.129 67.9968C343.129 67.5219 343.291 67.1135 343.614 66.7715C343.956 66.4296 344.364 66.2587 344.839 66.2587C345.333 66.2587 345.751 66.4296 346.093 66.7715C346.435 67.1135 346.606 67.5219 346.606 67.9968C346.606 68.4907 346.435 68.8991 346.093 69.222C345.751 69.5449 345.333 69.7064 344.839 69.7064C344.364 69.7064 343.956 69.5449 343.614 69.222C343.291 68.8991 343.129 68.4907 343.129 67.9968ZM347.66 67.9968C347.66 67.5219 347.821 67.1135 348.144 66.7715C348.486 66.4296 348.895 66.2587 349.37 66.2587C349.863 66.2587 350.281 66.4296 350.623 66.7715C350.965 67.1135 351.136 67.5219 351.136 67.9968C351.136 68.4907 350.965 68.8991 350.623 69.222C350.281 69.5449 349.863 69.7064 349.37 69.7064C348.895 69.7064 348.486 69.5449 348.144 69.222C347.821 68.8991 347.66 68.4907 347.66 67.9968Z" fill="url(#paint64_linear_3509_51718)"/>
<path d="M362.294 76.4024C361.952 76.4024 361.6 76.5353 361.239 76.8013C360.878 77.0672 360.555 77.4186 360.271 77.8555C359.986 78.2734 359.748 78.7483 359.558 79.2802C359.368 79.8121 359.273 80.344 359.273 80.8758C359.273 81.1608 359.34 81.4077 359.473 81.6167C359.606 81.8256 359.843 82.0061 360.185 82.158C360.527 82.31 360.992 82.424 361.581 82.5C362.189 82.576 362.958 82.6139 363.889 82.6139H365.371C365.371 81.7401 365.276 80.9328 365.086 80.192C364.915 79.4322 364.678 78.7768 364.374 78.2259C364.089 77.6561 363.756 77.2097 363.376 76.8867C363.015 76.5638 362.654 76.4024 362.294 76.4024ZM362.607 72.6127C363.519 72.6127 364.345 72.8976 365.086 73.4675C365.827 74.0184 366.454 74.7497 366.966 75.6615C367.479 76.5733 367.878 77.6086 368.163 78.7673C368.448 79.9071 368.591 81.0563 368.591 82.215V82.6139H370.585L371.411 83.1838V85.8337L370.585 86.4036H368.078C367.47 88.5121 366.387 90.0413 364.829 90.991C363.272 91.9408 361.344 92.4157 359.045 92.4157L358.589 88.6261C360.261 88.6261 361.581 88.4456 362.55 88.0847C363.519 87.7428 364.222 87.1824 364.659 86.4036H363.348C361.923 86.4036 360.745 86.2801 359.815 86.0332C358.884 85.7672 358.143 85.4158 357.592 84.9789C357.041 84.523 356.652 83.9911 356.424 83.3833C356.196 82.7754 356.082 82.1201 356.082 81.4172C356.082 80.4484 356.272 79.4417 356.652 78.3969C357.032 77.3521 357.526 76.4024 358.133 75.5475C358.76 74.6927 359.463 73.9899 360.242 73.439C361.021 72.8882 361.809 72.6127 362.607 72.6127Z" fill="url(#paint65_linear_3509_51718)"/>
<path d="M373.408 82.6139L373.978 83.1838V85.8337L373.408 86.4036H370.587L370.017 85.8337V83.1838L370.587 82.6139H373.408Z" fill="url(#paint66_linear_3509_51718)"/>
<path d="M376.218 82.6139L376.788 83.1838V85.8337L376.218 86.4036H373.397L372.827 85.8337V83.1838L373.397 82.6139H376.218Z" fill="url(#paint67_linear_3509_51718)"/>
<path d="M379.029 82.6139L379.598 83.1838V85.8337L379.029 86.4036H376.208L375.638 85.8337V83.1838L376.208 82.6139H379.029Z" fill="url(#paint68_linear_3509_51718)"/>
<path d="M381.839 82.6139L382.409 83.1838V85.8337L381.839 86.4036H379.018L378.448 85.8337V83.1838L379.018 82.6139H381.839Z" fill="url(#paint69_linear_3509_51718)"/>
<path d="M384.649 82.6139L385.219 83.1838V85.8337L384.649 86.4036H381.829L381.259 85.8337V83.1838L381.829 82.6139H384.649Z" fill="url(#paint70_linear_3509_51718)"/>
<path d="M387.46 82.6139L388.03 83.1838V85.8337L387.46 86.4036H384.639L384.069 85.8337V83.1838L384.639 82.6139H387.46Z" fill="url(#paint71_linear_3509_51718)"/>
<path d="M390.27 82.6139L390.84 83.1838V85.8337L390.27 86.4036H387.449L386.879 85.8337V83.1838L387.449 82.6139H390.27Z" fill="url(#paint72_linear_3509_51718)"/>
<path d="M393.081 82.6139L393.65 83.1838V85.8337L393.081 86.4036H390.26L389.69 85.8337V83.1838L390.26 82.6139H393.081Z" fill="url(#paint73_linear_3509_51718)"/>
<path d="M395.891 82.6139L396.461 83.1838V85.8337L395.891 86.4036H393.07L392.5 85.8337V83.1838L393.07 82.6139H395.891Z" fill="url(#paint74_linear_3509_51718)"/>
<path d="M398.701 82.6139L399.271 83.1838V85.8337L398.701 86.4036H395.881L395.311 85.8337V83.1838L395.881 82.6139H398.701Z" fill="url(#paint75_linear_3509_51718)"/>
<path d="M401.512 82.6139L402.082 83.1838V85.8337L401.512 86.4036H398.691L398.121 85.8337V83.1838L398.691 82.6139H401.512Z" fill="url(#paint76_linear_3509_51718)"/>
<path d="M404.322 82.6139L404.892 83.1838V85.8337L404.322 86.4036H401.501L400.931 85.8337V83.1838L401.501 82.6139H404.322Z" fill="url(#paint77_linear_3509_51718)"/>
<path d="M407.133 82.6139L407.702 83.1838V85.8337L407.133 86.4036H404.312L403.742 85.8337V83.1838L404.312 82.6139H407.133Z" fill="url(#paint78_linear_3509_51718)"/>
<path d="M409.943 82.6139L410.513 83.1838V85.8337L409.943 86.4036H407.122L406.552 85.8337V83.1838L407.122 82.6139H409.943Z" fill="url(#paint79_linear_3509_51718)"/>
<path d="M412.753 82.6139L413.323 83.1838V85.8337L412.753 86.4036H409.932L409.363 85.8337V83.1838L409.932 82.6139H412.753Z" fill="url(#paint80_linear_3509_51718)"/>
<path d="M415.564 82.6139L416.134 83.1838V85.8337L415.564 86.4036H412.743L412.173 85.8337V83.1838L412.743 82.6139H415.564Z" fill="url(#paint81_linear_3509_51718)"/>
<path d="M418.374 82.6139L418.944 83.1838V85.8337L418.374 86.4036H415.553L414.983 85.8337V83.1838L415.553 82.6139H418.374Z" fill="url(#paint82_linear_3509_51718)"/>
<path d="M421.185 82.6139L421.754 83.1838V85.8337L421.185 86.4036H418.364L417.794 85.8337V83.1838L418.364 82.6139H421.185Z" fill="url(#paint83_linear_3509_51718)"/>
<path d="M423.995 82.6139L424.565 83.1838V85.8337L423.995 86.4036H421.174L420.604 85.8337V83.1838L421.174 82.6139H423.995Z" fill="url(#paint84_linear_3509_51718)"/>
<path d="M423.415 85.8337V83.1838L423.984 82.6139C425.295 82.6139 426.188 82.367 426.663 81.8731C427.138 81.3792 427.375 80.5814 427.375 79.4797V72.4702H430.566V79.1092C430.566 80.021 430.491 80.7524 430.339 81.3032C430.206 81.8541 429.949 82.291 429.569 82.6139H432.647C433.957 82.6139 434.86 82.367 435.353 81.8731C435.866 81.3792 436.123 80.5814 436.123 79.4797V72.4702H439.314V79.1092C439.314 80.021 439.238 80.7524 439.086 81.3032C438.953 81.8541 438.697 82.291 438.317 82.6139H440.397C441.707 82.6139 442.61 82.367 443.104 81.8731C443.617 81.3792 443.873 80.5814 443.873 79.4797V71.5869H447.064V79.1092C447.064 80.021 446.988 80.7524 446.836 81.3032C446.684 81.8541 446.418 82.291 446.038 82.6139H449.344L449.914 83.1838V85.8337L449.344 86.4036H423.984L423.415 85.8337Z" fill="url(#paint85_linear_3509_51718)"/>
<path d="M455.659 79.8786C455.659 80.7714 455.574 81.6167 455.403 82.4145C455.232 83.2123 454.928 83.9057 454.491 84.4945C454.054 85.0834 453.456 85.5488 452.696 85.8907C451.936 86.2326 450.967 86.4036 449.79 86.4036H449.334L448.393 85.4633V83.5542L449.334 82.6139H450.673C451.376 82.6139 451.851 82.481 452.098 82.215C452.345 81.9491 452.468 81.4647 452.468 80.7619V65.2614H455.659V79.8786Z" fill="url(#paint86_linear_3509_51718)"/>
<path d="M460.796 86.4036V65.2614H463.987V86.4036H460.796Z" fill="url(#paint87_linear_3509_51718)"/>
<path d="M2.3879 41.461V41.3591C3.32686 39.8289 4.34234 38.347 5.43046 36.919C6.02733 36.1183 6.63876 35.3613 7.26474 34.6043L9.04078 32.6099V15.2571C9.04078 12.4752 11.2959 10.2201 14.0778 10.2201H38.1272C43.9392 6.94308 49.9764 4.08258 56.1933 1.66016H14.136C6.62994 1.66818 0.547086 7.75104 0.539062 15.2571V44.9986C0.956385 44.1736 1.37856 43.3729 1.80559 42.5965L2.3879 41.461Z" fill="url(#paint88_linear_3509_51718)"/>
<path d="M106.781 1.66016H86.8956C82.5283 3.4362 73.4588 7.58516 67.7376 10.2201H106.781C109.563 10.2201 111.818 12.4752 111.818 15.2571V107.903C111.81 110.679 109.558 112.925 106.781 112.925H14.136C11.3598 112.925 9.10704 110.679 9.09902 107.903V82.9652C8.64773 82.6886 8.18188 82.4265 7.7597 82.1354C5.85289 80.7609 4.11783 79.1627 2.5917 77.375C1.84928 76.4773 1.16372 75.5341 0.539062 74.5508V107.903C0.555102 115.403 6.63562 121.477 14.136 121.485H106.781C114.28 121.477 120.356 115.401 120.364 107.903V15.2571C120.364 7.75339 114.285 1.66819 106.781 1.66016Z" fill="url(#paint89_linear_3509_51718)"/>
<path d="M106.404 65.7723L106.23 93.2428L99.373 88.2058L99.2711 88.2931L97.6261 89.7489C97.0292 90.2875 96.1703 90.8116 95.4715 91.4085L92.9967 93.2573C92.1378 93.8979 91.1333 94.4365 90.0852 95.077C85.5598 97.8549 80.6901 100.028 75.6002 101.541C69.9299 103.259 64.0539 104.204 58.1309 104.35C55.2167 104.43 52.3004 104.342 49.3963 104.088C46.5996 103.798 43.82 103.36 41.0692 102.778C38.3906 102.298 35.9012 101.41 33.5283 100.755L30.18 99.488L28.6515 98.8621L27.1957 98.1633C25.4191 97.3904 23.6887 96.5155 22.0131 95.5429C20.5574 94.6694 19.2035 93.9852 18.199 93.2428L15.0982 91.1028L18.5338 92.5586C19.886 93.1818 21.271 93.7309 22.6828 94.2036C24.4582 94.8211 26.2661 95.3411 28.0983 95.7613L29.554 96.1543L31.17 96.4309L34.5182 97.0132C36.9335 97.3216 39.363 97.5062 41.7971 97.5664C44.371 97.6234 46.9461 97.5505 49.5127 97.3481C52.1264 97.0846 54.7223 96.6666 57.2866 96.0961C62.2232 95.0523 66.9939 93.338 71.4658 91.0009C75.2441 89.0491 78.7447 86.6011 81.8746 83.722C82.5442 83.1106 83.2284 82.5719 83.7816 81.9605C84.3348 81.3491 84.8589 80.7522 85.3393 80.2281C85.8197 79.7041 86.2419 79.2673 86.635 78.7724L79.9821 73.8664L106.404 65.7723Z" fill="url(#paint90_linear_3509_51718)"/>
<path d="M25.1386 83.183C21.5508 82.9603 18.0148 82.2148 14.6424 80.9702C13.7227 80.6413 12.8275 80.2472 11.9638 79.791C11.1049 79.296 10.2023 78.7865 9.3871 78.2479C7.784 77.1168 6.31833 75.8026 5.01977 74.3318C2.46239 71.3173 0.802899 67.6453 0.230275 63.7338C-0.268252 60.1049 0.0449955 56.4106 1.14741 52.9174C1.37661 52.088 1.66361 51.2756 2.00632 50.4863L2.98169 48.157C3.68046 46.7012 4.43746 45.2455 5.31093 43.7897C6.18439 42.3339 7.1452 41.0383 8.14969 39.7426C8.70288 39.0148 9.28519 38.2869 9.88206 37.6318C11.3767 35.9043 12.9392 34.2641 14.5697 32.7113C35.6056 12.8399 64.561 1.93618 81.2878 0C77.7794 1.15006 68.0548 5.28446 62.5083 7.80295C57.2383 10.1364 52.0926 12.7409 47.0917 15.6059C37.8153 20.4951 29.3137 26.7303 21.8631 34.1088C20.7421 35.2734 19.6649 36.4672 18.6021 37.69C16.038 40.6499 13.8431 43.9105 12.0657 47.4C11.5562 48.652 10.9739 49.8748 10.5226 51.1268L9.95485 53.0339C9.74202 53.6501 9.58132 54.2832 9.47444 54.9264C8.9411 57.2742 8.9411 59.7118 9.47444 62.0597C9.99508 64.1587 11.1006 66.0668 12.6626 67.5625C13.4726 68.2918 14.3556 68.9357 15.2975 69.4841C16.2257 69.9596 17.2017 70.3353 18.2091 70.6051C20.5845 71.2172 23.037 71.4772 25.488 71.3766C28.0817 71.3127 30.6664 71.045 33.2181 70.5759C42.4947 68.8993 51.2671 65.1305 58.8689 59.5557L59.9898 58.6823L61.2127 57.6341C62.0133 56.9499 62.7849 56.2948 63.5128 55.6251C64.9686 54.3441 66.2788 53.0921 67.5016 51.9129C69.1395 50.2359 70.6803 48.4667 72.1164 46.6139L62.2754 40.6307L98.3786 28.5477V62.7293L87.5767 56.1055C87.4166 56.2657 87.2856 56.4258 87.14 56.6005C84.6977 59.3547 82.0451 61.9148 79.206 64.2579C77.6047 65.539 75.916 66.9074 74.1108 68.203C73.2083 68.8873 72.2911 69.5132 71.3449 70.1683L69.8891 71.1583L68.2149 72.2501C63.4448 75.24 58.3196 77.6216 52.9584 79.3397C47.1562 81.2655 41.1538 82.5256 35.067 83.0956C31.7655 83.3966 28.4448 83.4258 25.1386 83.183Z" fill="url(#paint91_linear_3509_51718)"/>
<path opacity="0.84" d="M9.49346 54.9255C9.60034 54.2823 9.76104 53.6493 9.97387 53.033L10.5416 51.1259C10.9929 49.874 11.5752 48.6511 12.0847 47.3992C13.8621 43.9096 16.057 40.6491 18.6212 37.6891C19.6839 36.4663 20.7612 35.2726 21.8821 34.1079C29.3327 26.7294 37.8344 20.4942 47.1107 15.605C48.9741 14.5132 50.7938 13.5233 52.6426 12.5625C51.4926 12.4751 50.3425 12.4315 49.1633 12.4315C47.1446 12.4365 45.1277 12.5531 43.1218 12.7808C32.7376 18.0771 23.1356 24.7838 14.5887 32.7104C12.9582 34.2535 11.3957 35.8937 9.90108 37.6309C9.30421 38.3151 8.7219 39.0139 8.16871 39.7418L7.73197 40.3387C7.28854 42.317 7.06398 44.3381 7.06232 46.3656C7.06881 50.0331 7.79591 53.6637 9.20231 57.0509C9.25737 56.3373 9.35459 55.6276 9.49346 54.9255Z" fill="url(#paint92_linear_3509_51718)"/>
<rect x="129.52" y="2.50391" width="4.11984" height="119.825" fill="url(#paint93_linear_3509_51718)"/>
<defs>
<linearGradient id="paint0_linear_3509_51718" x1="181.761" y1="63.6636" x2="181.761" y2="4.57449" gradientUnits="userSpaceOnUse">
<stop stop-color="#C6C5C7"/>
<stop offset="0.24" stop-color="#DADADB"/>
<stop offset="0.26" stop-color="#DEDEDF"/>
<stop offset="0.41" stop-color="#F6F6F6"/>
<stop offset="0.5" stop-color="white"/>
<stop offset="0.61" stop-color="#F6F6F6"/>
<stop offset="0.78" stop-color="#DEDEDF"/>
<stop offset="0.81" stop-color="#DADADB"/>
<stop offset="1" stop-color="#C6C5C7"/>
</linearGradient>
<linearGradient id="paint1_linear_3509_51718" x1="221.001" y1="12.0838" x2="221.001" y2="4.58459" gradientUnits="userSpaceOnUse">
<stop stop-color="#C6C5C7"/>
<stop offset="0.24" stop-color="#DADADB"/>
<stop offset="0.26" stop-color="#DEDEDF"/>
<stop offset="0.41" stop-color="#F6F6F6"/>
<stop offset="0.5" stop-color="white"/>
<stop offset="0.61" stop-color="#F6F6F6"/>
<stop offset="0.78" stop-color="#DEDEDF"/>
<stop offset="0.81" stop-color="#DADADB"/>
<stop offset="1" stop-color="#C6C5C7"/>
</linearGradient>
<linearGradient id="paint2_linear_3509_51718" x1="330.727" y1="12.0838" x2="330.727" y2="4.58459" gradientUnits="userSpaceOnUse">
<stop stop-color="#C6C5C7"/>
<stop offset="0.24" stop-color="#DADADB"/>
<stop offset="0.26" stop-color="#DEDEDF"/>
<stop offset="0.41" stop-color="#F6F6F6"/>
<stop offset="0.5" stop-color="white"/>
<stop offset="0.61" stop-color="#F6F6F6"/>
<stop offset="0.78" stop-color="#DEDEDF"/>
<stop offset="0.81" stop-color="#DADADB"/>
<stop offset="1" stop-color="#C6C5C7"/>
</linearGradient>
<linearGradient id="paint3_linear_3509_51718" x1="216.704" y1="57.5926" x2="216.704" y2="17.6869" gradientUnits="userSpaceOnUse">
<stop stop-color="#C6C5C7"/>
<stop offset="0.24" stop-color="#DADADB"/>
<stop offset="0.26" stop-color="#DEDEDF"/>
<stop offset="0.41" stop-color="#F6F6F6"/>
<stop offset="0.5" stop-color="white"/>
<stop offset="0.61" stop-color="#F6F6F6"/>
<stop offset="0.78" stop-color="#DEDEDF"/>
<stop offset="0.81" stop-color="#DADADB"/>
<stop offset="1" stop-color="#C6C5C7"/>
</linearGradient>
<linearGradient id="paint4_linear_3509_51718" x1="252.463" y1="57.4741" x2="252.463" y2="4.58459" gradientUnits="userSpaceOnUse">
<stop stop-color="#C6C5C7"/>
<stop offset="0.24" stop-color="#DADADB"/>
<stop offset="0.26" stop-color="#DEDEDF"/>
<stop offset="0.41" stop-color="#F6F6F6"/>
<stop offset="0.5" stop-color="white"/>
<stop offset="0.61" stop-color="#F6F6F6"/>
<stop offset="0.78" stop-color="#DEDEDF"/>
<stop offset="0.81" stop-color="#DADADB"/>
<stop offset="1" stop-color="#C6C5C7"/>
</linearGradient>
<linearGradient id="paint5_linear_3509_51718" x1="289.231" y1="57.5926" x2="289.231" y2="17.6869" gradientUnits="userSpaceOnUse">
<stop stop-color="#C6C5C7"/>
<stop offset="0.24" stop-color="#DADADB"/>
<stop offset="0.26" stop-color="#DEDEDF"/>
<stop offset="0.41" stop-color="#F6F6F6"/>
<stop offset="0.5" stop-color="white"/>
<stop offset="0.61" stop-color="#F6F6F6"/>
<stop offset="0.78" stop-color="#DEDEDF"/>
<stop offset="0.81" stop-color="#DADADB"/>
<stop offset="1" stop-color="#C6C5C7"/>
</linearGradient>
<linearGradient id="paint6_linear_3509_51718" x1="326.419" y1="57.5223" x2="326.419" y2="17.6317" gradientUnits="userSpaceOnUse">
<stop stop-color="#C6C5C7"/>
<stop offset="0.24" stop-color="#DADADB"/>
<stop offset="0.26" stop-color="#DEDEDF"/>
<stop offset="0.41" stop-color="#F6F6F6"/>
<stop offset="0.5" stop-color="white"/>
<stop offset="0.61" stop-color="#F6F6F6"/>
<stop offset="0.78" stop-color="#DEDEDF"/>
<stop offset="0.81" stop-color="#DADADB"/>
<stop offset="1" stop-color="#C6C5C7"/>
</linearGradient>
<linearGradient id="paint7_linear_3509_51718" x1="408.023" y1="57.5921" x2="408.023" y2="17.6864" gradientUnits="userSpaceOnUse">
<stop stop-color="#C6C5C7"/>
<stop offset="0.24" stop-color="#DADADB"/>
<stop offset="0.26" stop-color="#DEDEDF"/>
<stop offset="0.41" stop-color="#F6F6F6"/>
<stop offset="0.5" stop-color="white"/>
<stop offset="0.61" stop-color="#F6F6F6"/>
<stop offset="0.78" stop-color="#DEDEDF"/>
<stop offset="0.81" stop-color="#DADADB"/>
<stop offset="1" stop-color="#C6C5C7"/>
</linearGradient>
<linearGradient id="paint8_linear_3509_51718" x1="430.604" y1="57.4973" x2="430.604" y2="4.58427" gradientUnits="userSpaceOnUse">
<stop stop-color="#C6C5C7"/>
<stop offset="0.24" stop-color="#DADADB"/>
<stop offset="0.26" stop-color="#DEDEDF"/>
<stop offset="0.41" stop-color="#F6F6F6"/>
<stop offset="0.5" stop-color="white"/>
<stop offset="0.61" stop-color="#F6F6F6"/>
<stop offset="0.78" stop-color="#DEDEDF"/>
<stop offset="0.81" stop-color="#DADADB"/>
<stop offset="1" stop-color="#C6C5C7"/>
</linearGradient>
<linearGradient id="paint9_linear_3509_51718" x1="466.686" y1="57.5221" x2="466.686" y2="4.58459" gradientUnits="userSpaceOnUse">
<stop stop-color="#C6C5C7"/>
<stop offset="0.24" stop-color="#DADADB"/>
<stop offset="0.26" stop-color="#DEDEDF"/>
<stop offset="0.41" stop-color="#F6F6F6"/>
<stop offset="0.5" stop-color="white"/>
<stop offset="0.61" stop-color="#F6F6F6"/>
<stop offset="0.78" stop-color="#DEDEDF"/>
<stop offset="0.81" stop-color="#DADADB"/>
<stop offset="1" stop-color="#C6C5C7"/>
</linearGradient>
<linearGradient id="paint10_linear_3509_51718" x1="465.108" y1="118.435" x2="465.108" y2="63.8652" gradientUnits="userSpaceOnUse">
<stop stop-color="#C6C5C7"/>
<stop offset="0.24" stop-color="#DADADB"/>
<stop offset="0.26" stop-color="#DEDEDF"/>
<stop offset="0.41" stop-color="#F6F6F6"/>
<stop offset="0.5" stop-color="white"/>
<stop offset="0.61" stop-color="#F6F6F6"/>
<stop offset="0.78" stop-color="#DEDEDF"/>
<stop offset="0.81" stop-color="#DADADB"/>
<stop offset="1" stop-color="#C6C5C7"/>
</linearGradient>
<linearGradient id="paint11_linear_3509_51718" x1="465.108" y1="118.435" x2="465.108" y2="63.8652" gradientUnits="userSpaceOnUse">
<stop stop-color="#C6C5C7"/>
<stop offset="0.24" stop-color="#DADADB"/>
<stop offset="0.26" stop-color="#DEDEDF"/>
<stop offset="0.41" stop-color="#F6F6F6"/>
<stop offset="0.5" stop-color="white"/>
<stop offset="0.61" stop-color="#F6F6F6"/>
<stop offset="0.78" stop-color="#DEDEDF"/>
<stop offset="0.81" stop-color="#DADADB"/>
<stop offset="1" stop-color="#C6C5C7"/>
</linearGradient>
<linearGradient id="paint12_linear_3509_51718" x1="465.108" y1="118.435" x2="465.108" y2="63.8652" gradientUnits="userSpaceOnUse">
<stop stop-color="#C6C5C7"/>
<stop offset="0.24" stop-color="#DADADB"/>
<stop offset="0.26" stop-color="#DEDEDF"/>
<stop offset="0.41" stop-color="#F6F6F6"/>
<stop offset="0.5" stop-color="white"/>
<stop offset="0.61" stop-color="#F6F6F6"/>
<stop offset="0.78" stop-color="#DEDEDF"/>
<stop offset="0.81" stop-color="#DADADB"/>
<stop offset="1" stop-color="#C6C5C7"/>
</linearGradient>
<linearGradient id="paint13_linear_3509_51718" x1="465.108" y1="118.435" x2="465.108" y2="63.8652" gradientUnits="userSpaceOnUse">
<stop stop-color="#C6C5C7"/>
<stop offset="0.24" stop-color="#DADADB"/>
<stop offset="0.26" stop-color="#DEDEDF"/>
<stop offset="0.41" stop-color="#F6F6F6"/>
<stop offset="0.5" stop-color="white"/>
<stop offset="0.61" stop-color="#F6F6F6"/>
<stop offset="0.78" stop-color="#DEDEDF"/>
<stop offset="0.81" stop-color="#DADADB"/>
<stop offset="1" stop-color="#C6C5C7"/>
</linearGradient>
<linearGradient id="paint14_linear_3509_51718" x1="465.108" y1="118.435" x2="465.108" y2="63.8652" gradientUnits="userSpaceOnUse">
<stop stop-color="#C6C5C7"/>
<stop offset="0.24" stop-color="#DADADB"/>
<stop offset="0.26" stop-color="#DEDEDF"/>
<stop offset="0.41" stop-color="#F6F6F6"/>
<stop offset="0.5" stop-color="white"/>
<stop offset="0.61" stop-color="#F6F6F6"/>
<stop offset="0.78" stop-color="#DEDEDF"/>
<stop offset="0.81" stop-color="#DADADB"/>
<stop offset="1" stop-color="#C6C5C7"/>
</linearGradient>
<linearGradient id="paint15_linear_3509_51718" x1="465.108" y1="118.435" x2="465.108" y2="63.8652" gradientUnits="userSpaceOnUse">
<stop stop-color="#C6C5C7"/>
<stop offset="0.24" stop-color="#DADADB"/>
<stop offset="0.26" stop-color="#DEDEDF"/>
<stop offset="0.41" stop-color="#F6F6F6"/>
<stop offset="0.5" stop-color="white"/>
<stop offset="0.61" stop-color="#F6F6F6"/>
<stop offset="0.78" stop-color="#DEDEDF"/>
<stop offset="0.81" stop-color="#DADADB"/>
<stop offset="1" stop-color="#C6C5C7"/>
</linearGradient>
<linearGradient id="paint16_linear_3509_51718" x1="465.108" y1="118.435" x2="465.108" y2="63.8652" gradientUnits="userSpaceOnUse">
<stop stop-color="#C6C5C7"/>
<stop offset="0.24" stop-color="#DADADB"/>
<stop offset="0.26" stop-color="#DEDEDF"/>
<stop offset="0.41" stop-color="#F6F6F6"/>
<stop offset="0.5" stop-color="white"/>
<stop offset="0.61" stop-color="#F6F6F6"/>
<stop offset="0.78" stop-color="#DEDEDF"/>
<stop offset="0.81" stop-color="#DADADB"/>
<stop offset="1" stop-color="#C6C5C7"/>
</linearGradient>
<linearGradient id="paint17_linear_3509_51718" x1="465.108" y1="118.435" x2="465.108" y2="63.8652" gradientUnits="userSpaceOnUse">
<stop stop-color="#C6C5C7"/>
<stop offset="0.24" stop-color="#DADADB"/>
<stop offset="0.26" stop-color="#DEDEDF"/>
<stop offset="0.41" stop-color="#F6F6F6"/>
<stop offset="0.5" stop-color="white"/>
<stop offset="0.61" stop-color="#F6F6F6"/>
<stop offset="0.78" stop-color="#DEDEDF"/>
<stop offset="0.81" stop-color="#DADADB"/>
<stop offset="1" stop-color="#C6C5C7"/>
</linearGradient>
<linearGradient id="paint18_linear_3509_51718" x1="465.108" y1="118.435" x2="465.108" y2="63.8652" gradientUnits="userSpaceOnUse">
<stop stop-color="#C6C5C7"/>
<stop offset="0.24" stop-color="#DADADB"/>
<stop offset="0.26" stop-color="#DEDEDF"/>
<stop offset="0.41" stop-color="#F6F6F6"/>
<stop offset="0.5" stop-color="white"/>
<stop offset="0.61" stop-color="#F6F6F6"/>
<stop offset="0.78" stop-color="#DEDEDF"/>
<stop offset="0.81" stop-color="#DADADB"/>
<stop offset="1" stop-color="#C6C5C7"/>
</linearGradient>
<linearGradient id="paint19_linear_3509_51718" x1="465.108" y1="118.435" x2="465.108" y2="63.8652" gradientUnits="userSpaceOnUse">
<stop stop-color="#C6C5C7"/>
<stop offset="0.24" stop-color="#DADADB"/>
<stop offset="0.26" stop-color="#DEDEDF"/>
<stop offset="0.41" stop-color="#F6F6F6"/>
<stop offset="0.5" stop-color="white"/>
<stop offset="0.61" stop-color="#F6F6F6"/>
<stop offset="0.78" stop-color="#DEDEDF"/>
<stop offset="0.81" stop-color="#DADADB"/>
<stop offset="1" stop-color="#C6C5C7"/>
</linearGradient>
<linearGradient id="paint20_linear_3509_51718" x1="465.108" y1="118.435" x2="465.108" y2="63.8652" gradientUnits="userSpaceOnUse">
<stop stop-color="#C6C5C7"/>
<stop offset="0.24" stop-color="#DADADB"/>
<stop offset="0.26" stop-color="#DEDEDF"/>
<stop offset="0.41" stop-color="#F6F6F6"/>
<stop offset="0.5" stop-color="white"/>
<stop offset="0.61" stop-color="#F6F6F6"/>
<stop offset="0.78" stop-color="#DEDEDF"/>
<stop offset="0.81" stop-color="#DADADB"/>
<stop offset="1" stop-color="#C6C5C7"/>
</linearGradient>
<linearGradient id="paint21_linear_3509_51718" x1="465.108" y1="118.435" x2="465.108" y2="63.8652" gradientUnits="userSpaceOnUse">
<stop stop-color="#C6C5C7"/>
<stop offset="0.24" stop-color="#DADADB"/>
<stop offset="0.26" stop-color="#DEDEDF"/>
<stop offset="0.41" stop-color="#F6F6F6"/>
<stop offset="0.5" stop-color="white"/>
<stop offset="0.61" stop-color="#F6F6F6"/>
<stop offset="0.78" stop-color="#DEDEDF"/>
<stop offset="0.81" stop-color="#DADADB"/>
<stop offset="1" stop-color="#C6C5C7"/>
</linearGradient>
<linearGradient id="paint22_linear_3509_51718" x1="465.108" y1="118.435" x2="465.108" y2="63.8652" gradientUnits="userSpaceOnUse">
<stop stop-color="#C6C5C7"/>
<stop offset="0.24" stop-color="#DADADB"/>
<stop offset="0.26" stop-color="#DEDEDF"/>
<stop offset="0.41" stop-color="#F6F6F6"/>
<stop offset="0.5" stop-color="white"/>
<stop offset="0.61" stop-color="#F6F6F6"/>
<stop offset="0.78" stop-color="#DEDEDF"/>
<stop offset="0.81" stop-color="#DADADB"/>
<stop offset="1" stop-color="#C6C5C7"/>
</linearGradient>
<linearGradient id="paint23_linear_3509_51718" x1="465.108" y1="118.435" x2="465.108" y2="63.8652" gradientUnits="userSpaceOnUse">
<stop stop-color="#C6C5C7"/>
<stop offset="0.24" stop-color="#DADADB"/>
<stop offset="0.26" stop-color="#DEDEDF"/>
<stop offset="0.41" stop-color="#F6F6F6"/>
<stop offset="0.5" stop-color="white"/>
<stop offset="0.61" stop-color="#F6F6F6"/>
<stop offset="0.78" stop-color="#DEDEDF"/>
<stop offset="0.81" stop-color="#DADADB"/>
<stop offset="1" stop-color="#C6C5C7"/>
</linearGradient>
<linearGradient id="paint24_linear_3509_51718" x1="465.108" y1="118.435" x2="465.108" y2="63.8652" gradientUnits="userSpaceOnUse">
<stop stop-color="#C6C5C7"/>
<stop offset="0.24" stop-color="#DADADB"/>
<stop offset="0.26" stop-color="#DEDEDF"/>
<stop offset="0.41" stop-color="#F6F6F6"/>
<stop offset="0.5" stop-color="white"/>
<stop offset="0.61" stop-color="#F6F6F6"/>
<stop offset="0.78" stop-color="#DEDEDF"/>
<stop offset="0.81" stop-color="#DADADB"/>
<stop offset="1" stop-color="#C6C5C7"/>
</linearGradient>
<linearGradient id="paint25_linear_3509_51718" x1="465.108" y1="118.435" x2="465.108" y2="63.8652" gradientUnits="userSpaceOnUse">
<stop stop-color="#C6C5C7"/>
<stop offset="0.24" stop-color="#DADADB"/>
<stop offset="0.26" stop-color="#DEDEDF"/>
<stop offset="0.41" stop-color="#F6F6F6"/>
<stop offset="0.5" stop-color="white"/>
<stop offset="0.61" stop-color="#F6F6F6"/>
<stop offset="0.78" stop-color="#DEDEDF"/>
<stop offset="0.81" stop-color="#DADADB"/>
<stop offset="1" stop-color="#C6C5C7"/>
</linearGradient>
<linearGradient id="paint26_linear_3509_51718" x1="465.108" y1="118.435" x2="465.108" y2="63.8652" gradientUnits="userSpaceOnUse">
<stop stop-color="#C6C5C7"/>
<stop offset="0.24" stop-color="#DADADB"/>
<stop offset="0.26" stop-color="#DEDEDF"/>
<stop offset="0.41" stop-color="#F6F6F6"/>
<stop offset="0.5" stop-color="white"/>
<stop offset="0.61" stop-color="#F6F6F6"/>
<stop offset="0.78" stop-color="#DEDEDF"/>
<stop offset="0.81" stop-color="#DADADB"/>
<stop offset="1" stop-color="#C6C5C7"/>
</linearGradient>
<linearGradient id="paint27_linear_3509_51718" x1="465.108" y1="118.435" x2="465.108" y2="63.8652" gradientUnits="userSpaceOnUse">
<stop stop-color="#C6C5C7"/>
<stop offset="0.24" stop-color="#DADADB"/>
<stop offset="0.26" stop-color="#DEDEDF"/>
<stop offset="0.41" stop-color="#F6F6F6"/>
<stop offset="0.5" stop-color="white"/>
<stop offset="0.61" stop-color="#F6F6F6"/>
<stop offset="0.78" stop-color="#DEDEDF"/>
<stop offset="0.81" stop-color="#DADADB"/>
<stop offset="1" stop-color="#C6C5C7"/>
</linearGradient>
<linearGradient id="paint28_linear_3509_51718" x1="465.108" y1="118.435" x2="465.108" y2="63.8652" gradientUnits="userSpaceOnUse">
<stop stop-color="#C6C5C7"/>
<stop offset="0.24" stop-color="#DADADB"/>
<stop offset="0.26" stop-color="#DEDEDF"/>
<stop offset="0.41" stop-color="#F6F6F6"/>
<stop offset="0.5" stop-color="white"/>
<stop offset="0.61" stop-color="#F6F6F6"/>
<stop offset="0.78" stop-color="#DEDEDF"/>
<stop offset="0.81" stop-color="#DADADB"/>
<stop offset="1" stop-color="#C6C5C7"/>
</linearGradient>
<linearGradient id="paint29_linear_3509_51718" x1="465.108" y1="118.435" x2="465.108" y2="63.8652" gradientUnits="userSpaceOnUse">
<stop stop-color="#C6C5C7"/>
<stop offset="0.24" stop-color="#DADADB"/>
<stop offset="0.26" stop-color="#DEDEDF"/>
<stop offset="0.41" stop-color="#F6F6F6"/>
<stop offset="0.5" stop-color="white"/>
<stop offset="0.61" stop-color="#F6F6F6"/>
<stop offset="0.78" stop-color="#DEDEDF"/>
<stop offset="0.81" stop-color="#DADADB"/>
<stop offset="1" stop-color="#C6C5C7"/>
</linearGradient>
<linearGradient id="paint30_linear_3509_51718" x1="465.108" y1="118.435" x2="465.108" y2="63.8652" gradientUnits="userSpaceOnUse">
<stop stop-color="#C6C5C7"/>
<stop offset="0.24" stop-color="#DADADB"/>
<stop offset="0.26" stop-color="#DEDEDF"/>
<stop offset="0.41" stop-color="#F6F6F6"/>
<stop offset="0.5" stop-color="white"/>
<stop offset="0.61" stop-color="#F6F6F6"/>
<stop offset="0.78" stop-color="#DEDEDF"/>
<stop offset="0.81" stop-color="#DADADB"/>
<stop offset="1" stop-color="#C6C5C7"/>
</linearGradient>
<linearGradient id="paint31_linear_3509_51718" x1="465.108" y1="118.435" x2="465.108" y2="63.8652" gradientUnits="userSpaceOnUse">
<stop stop-color="#C6C5C7"/>
<stop offset="0.24" stop-color="#DADADB"/>
<stop offset="0.26" stop-color="#DEDEDF"/>
<stop offset="0.41" stop-color="#F6F6F6"/>
<stop offset="0.5" stop-color="white"/>
<stop offset="0.61" stop-color="#F6F6F6"/>
<stop offset="0.78" stop-color="#DEDEDF"/>
<stop offset="0.81" stop-color="#DADADB"/>
<stop offset="1" stop-color="#C6C5C7"/>
</linearGradient>
<linearGradient id="paint32_linear_3509_51718" x1="465.108" y1="118.435" x2="465.108" y2="63.8652" gradientUnits="userSpaceOnUse">
<stop stop-color="#C6C5C7"/>
<stop offset="0.24" stop-color="#DADADB"/>
<stop offset="0.26" stop-color="#DEDEDF"/>
<stop offset="0.41" stop-color="#F6F6F6"/>
<stop offset="0.5" stop-color="white"/>
<stop offset="0.61" stop-color="#F6F6F6"/>
<stop offset="0.78" stop-color="#DEDEDF"/>
<stop offset="0.81" stop-color="#DADADB"/>
<stop offset="1" stop-color="#C6C5C7"/>
</linearGradient>
<linearGradient id="paint33_linear_3509_51718" x1="465.108" y1="118.435" x2="465.108" y2="63.8652" gradientUnits="userSpaceOnUse">
<stop stop-color="#C6C5C7"/>
<stop offset="0.24" stop-color="#DADADB"/>
<stop offset="0.26" stop-color="#DEDEDF"/>
<stop offset="0.41" stop-color="#F6F6F6"/>
<stop offset="0.5" stop-color="white"/>
<stop offset="0.61" stop-color="#F6F6F6"/>
<stop offset="0.78" stop-color="#DEDEDF"/>
<stop offset="0.81" stop-color="#DADADB"/>
<stop offset="1" stop-color="#C6C5C7"/>
</linearGradient>
<linearGradient id="paint34_linear_3509_51718" x1="465.108" y1="118.435" x2="465.108" y2="63.8652" gradientUnits="userSpaceOnUse">
<stop stop-color="#C6C5C7"/>
<stop offset="0.24" stop-color="#DADADB"/>
<stop offset="0.26" stop-color="#DEDEDF"/>
<stop offset="0.41" stop-color="#F6F6F6"/>
<stop offset="0.5" stop-color="white"/>
<stop offset="0.61" stop-color="#F6F6F6"/>
<stop offset="0.78" stop-color="#DEDEDF"/>
<stop offset="0.81" stop-color="#DADADB"/>
<stop offset="1" stop-color="#C6C5C7"/>
</linearGradient>
<linearGradient id="paint35_linear_3509_51718" x1="465.108" y1="118.435" x2="465.108" y2="63.8652" gradientUnits="userSpaceOnUse">
<stop stop-color="#C6C5C7"/>
<stop offset="0.24" stop-color="#DADADB"/>
<stop offset="0.26" stop-color="#DEDEDF"/>
<stop offset="0.41" stop-color="#F6F6F6"/>
<stop offset="0.5" stop-color="white"/>
<stop offset="0.61" stop-color="#F6F6F6"/>
<stop offset="0.78" stop-color="#DEDEDF"/>
<stop offset="0.81" stop-color="#DADADB"/>
<stop offset="1" stop-color="#C6C5C7"/>
</linearGradient>
<linearGradient id="paint36_linear_3509_51718" x1="465.108" y1="118.435" x2="465.108" y2="63.8652" gradientUnits="userSpaceOnUse">
<stop stop-color="#C6C5C7"/>
<stop offset="0.24" stop-color="#DADADB"/>
<stop offset="0.26" stop-color="#DEDEDF"/>
<stop offset="0.41" stop-color="#F6F6F6"/>
<stop offset="0.5" stop-color="white"/>
<stop offset="0.61" stop-color="#F6F6F6"/>
<stop offset="0.78" stop-color="#DEDEDF"/>
<stop offset="0.81" stop-color="#DADADB"/>
<stop offset="1" stop-color="#C6C5C7"/>
</linearGradient>
<linearGradient id="paint37_linear_3509_51718" x1="465.108" y1="118.435" x2="465.108" y2="63.8652" gradientUnits="userSpaceOnUse">
<stop stop-color="#C6C5C7"/>
<stop offset="0.24" stop-color="#DADADB"/>
<stop offset="0.26" stop-color="#DEDEDF"/>
<stop offset="0.41" stop-color="#F6F6F6"/>
<stop offset="0.5" stop-color="white"/>
<stop offset="0.61" stop-color="#F6F6F6"/>
<stop offset="0.78" stop-color="#DEDEDF"/>
<stop offset="0.81" stop-color="#DADADB"/>
<stop offset="1" stop-color="#C6C5C7"/>
</linearGradient>
<linearGradient id="paint38_linear_3509_51718" x1="465.108" y1="118.435" x2="465.108" y2="63.8652" gradientUnits="userSpaceOnUse">
<stop stop-color="#C6C5C7"/>
<stop offset="0.24" stop-color="#DADADB"/>
<stop offset="0.26" stop-color="#DEDEDF"/>
<stop offset="0.41" stop-color="#F6F6F6"/>
<stop offset="0.5" stop-color="white"/>
<stop offset="0.61" stop-color="#F6F6F6"/>
<stop offset="0.78" stop-color="#DEDEDF"/>
<stop offset="0.81" stop-color="#DADADB"/>
<stop offset="1" stop-color="#C6C5C7"/>
</linearGradient>
<linearGradient id="paint39_linear_3509_51718" x1="465.108" y1="118.435" x2="465.108" y2="63.8652" gradientUnits="userSpaceOnUse">
<stop stop-color="#C6C5C7"/>
<stop offset="0.24" stop-color="#DADADB"/>
<stop offset="0.26" stop-color="#DEDEDF"/>
<stop offset="0.41" stop-color="#F6F6F6"/>
<stop offset="0.5" stop-color="white"/>
<stop offset="0.61" stop-color="#F6F6F6"/>
<stop offset="0.78" stop-color="#DEDEDF"/>
<stop offset="0.81" stop-color="#DADADB"/>
<stop offset="1" stop-color="#C6C5C7"/>
</linearGradient>
<linearGradient id="paint40_linear_3509_51718" x1="465.108" y1="118.435" x2="465.108" y2="63.8652" gradientUnits="userSpaceOnUse">
<stop stop-color="#C6C5C7"/>
<stop offset="0.24" stop-color="#DADADB"/>
<stop offset="0.26" stop-color="#DEDEDF"/>
<stop offset="0.41" stop-color="#F6F6F6"/>
<stop offset="0.5" stop-color="white"/>
<stop offset="0.61" stop-color="#F6F6F6"/>
<stop offset="0.78" stop-color="#DEDEDF"/>
<stop offset="0.81" stop-color="#DADADB"/>
<stop offset="1" stop-color="#C6C5C7"/>
</linearGradient>
<linearGradient id="paint41_linear_3509_51718" x1="465.108" y1="118.435" x2="465.108" y2="63.8652" gradientUnits="userSpaceOnUse">
<stop stop-color="#C6C5C7"/>
<stop offset="0.24" stop-color="#DADADB"/>
<stop offset="0.26" stop-color="#DEDEDF"/>
<stop offset="0.41" stop-color="#F6F6F6"/>
<stop offset="0.5" stop-color="white"/>
<stop offset="0.61" stop-color="#F6F6F6"/>
<stop offset="0.78" stop-color="#DEDEDF"/>
<stop offset="0.81" stop-color="#DADADB"/>
<stop offset="1" stop-color="#C6C5C7"/>
</linearGradient>
<linearGradient id="paint42_linear_3509_51718" x1="465.108" y1="118.435" x2="465.108" y2="63.8652" gradientUnits="userSpaceOnUse">
<stop stop-color="#C6C5C7"/>
<stop offset="0.24" stop-color="#DADADB"/>
<stop offset="0.26" stop-color="#DEDEDF"/>
<stop offset="0.41" stop-color="#F6F6F6"/>
<stop offset="0.5" stop-color="white"/>
<stop offset="0.61" stop-color="#F6F6F6"/>
<stop offset="0.78" stop-color="#DEDEDF"/>
<stop offset="0.81" stop-color="#DADADB"/>
<stop offset="1" stop-color="#C6C5C7"/>
</linearGradient>
<linearGradient id="paint43_linear_3509_51718" x1="465.108" y1="118.435" x2="465.108" y2="63.8652" gradientUnits="userSpaceOnUse">
<stop stop-color="#C6C5C7"/>
<stop offset="0.24" stop-color="#DADADB"/>
<stop offset="0.26" stop-color="#DEDEDF"/>
<stop offset="0.41" stop-color="#F6F6F6"/>
<stop offset="0.5" stop-color="white"/>
<stop offset="0.61" stop-color="#F6F6F6"/>
<stop offset="0.78" stop-color="#DEDEDF"/>
<stop offset="0.81" stop-color="#DADADB"/>
<stop offset="1" stop-color="#C6C5C7"/>
</linearGradient>
<linearGradient id="paint44_linear_3509_51718" x1="465.108" y1="118.435" x2="465.108" y2="63.8652" gradientUnits="userSpaceOnUse">
<stop stop-color="#C6C5C7"/>
<stop offset="0.24" stop-color="#DADADB"/>
<stop offset="0.26" stop-color="#DEDEDF"/>
<stop offset="0.41" stop-color="#F6F6F6"/>
<stop offset="0.5" stop-color="white"/>
<stop offset="0.61" stop-color="#F6F6F6"/>
<stop offset="0.78" stop-color="#DEDEDF"/>
<stop offset="0.81" stop-color="#DADADB"/>
<stop offset="1" stop-color="#C6C5C7"/>
</linearGradient>
<linearGradient id="paint45_linear_3509_51718" x1="465.108" y1="118.435" x2="465.108" y2="63.8652" gradientUnits="userSpaceOnUse">
<stop stop-color="#C6C5C7"/>
<stop offset="0.24" stop-color="#DADADB"/>
<stop offset="0.26" stop-color="#DEDEDF"/>
<stop offset="0.41" stop-color="#F6F6F6"/>
<stop offset="0.5" stop-color="white"/>
<stop offset="0.61" stop-color="#F6F6F6"/>
<stop offset="0.78" stop-color="#DEDEDF"/>
<stop offset="0.81" stop-color="#DADADB"/>
<stop offset="1" stop-color="#C6C5C7"/>
</linearGradient>
<linearGradient id="paint46_linear_3509_51718" x1="465.108" y1="118.435" x2="465.108" y2="63.8652" gradientUnits="userSpaceOnUse">
<stop stop-color="#C6C5C7"/>
<stop offset="0.24" stop-color="#DADADB"/>
<stop offset="0.26" stop-color="#DEDEDF"/>
<stop offset="0.41" stop-color="#F6F6F6"/>
<stop offset="0.5" stop-color="white"/>
<stop offset="0.61" stop-color="#F6F6F6"/>
<stop offset="0.78" stop-color="#DEDEDF"/>
<stop offset="0.81" stop-color="#DADADB"/>
<stop offset="1" stop-color="#C6C5C7"/>
</linearGradient>
<linearGradient id="paint47_linear_3509_51718" x1="465.108" y1="118.435" x2="465.108" y2="63.8652" gradientUnits="userSpaceOnUse">
<stop stop-color="#C6C5C7"/>
<stop offset="0.24" stop-color="#DADADB"/>
<stop offset="0.26" stop-color="#DEDEDF"/>
<stop offset="0.41" stop-color="#F6F6F6"/>
<stop offset="0.5" stop-color="white"/>
<stop offset="0.61" stop-color="#F6F6F6"/>
<stop offset="0.78" stop-color="#DEDEDF"/>
<stop offset="0.81" stop-color="#DADADB"/>
<stop offset="1" stop-color="#C6C5C7"/>
</linearGradient>
<linearGradient id="paint48_linear_3509_51718" x1="465.108" y1="118.435" x2="465.108" y2="63.8652" gradientUnits="userSpaceOnUse">
<stop stop-color="#C6C5C7"/>
<stop offset="0.24" stop-color="#DADADB"/>
<stop offset="0.26" stop-color="#DEDEDF"/>
<stop offset="0.41" stop-color="#F6F6F6"/>
<stop offset="0.5" stop-color="white"/>
<stop offset="0.61" stop-color="#F6F6F6"/>
<stop offset="0.78" stop-color="#DEDEDF"/>
<stop offset="0.81" stop-color="#DADADB"/>
<stop offset="1" stop-color="#C6C5C7"/>
</linearGradient>
<linearGradient id="paint49_linear_3509_51718" x1="465.108" y1="118.435" x2="465.108" y2="63.8652" gradientUnits="userSpaceOnUse">
<stop stop-color="#C6C5C7"/>
<stop offset="0.24" stop-color="#DADADB"/>
<stop offset="0.26" stop-color="#DEDEDF"/>
<stop offset="0.41" stop-color="#F6F6F6"/>
<stop offset="0.5" stop-color="white"/>
<stop offset="0.61" stop-color="#F6F6F6"/>
<stop offset="0.78" stop-color="#DEDEDF"/>
<stop offset="0.81" stop-color="#DADADB"/>
<stop offset="1" stop-color="#C6C5C7"/>
</linearGradient>
<linearGradient id="paint50_linear_3509_51718" x1="465.108" y1="118.435" x2="465.108" y2="63.8652" gradientUnits="userSpaceOnUse">
<stop stop-color="#C6C5C7"/>
<stop offset="0.24" stop-color="#DADADB"/>
<stop offset="0.26" stop-color="#DEDEDF"/>
<stop offset="0.41" stop-color="#F6F6F6"/>
<stop offset="0.5" stop-color="white"/>
<stop offset="0.61" stop-color="#F6F6F6"/>
<stop offset="0.78" stop-color="#DEDEDF"/>
<stop offset="0.81" stop-color="#DADADB"/>
<stop offset="1" stop-color="#C6C5C7"/>
</linearGradient>
<linearGradient id="paint51_linear_3509_51718" x1="465.108" y1="118.435" x2="465.108" y2="63.8652" gradientUnits="userSpaceOnUse">
<stop stop-color="#C6C5C7"/>
<stop offset="0.24" stop-color="#DADADB"/>
<stop offset="0.26" stop-color="#DEDEDF"/>
<stop offset="0.41" stop-color="#F6F6F6"/>
<stop offset="0.5" stop-color="white"/>
<stop offset="0.61" stop-color="#F6F6F6"/>
<stop offset="0.78" stop-color="#DEDEDF"/>
<stop offset="0.81" stop-color="#DADADB"/>
<stop offset="1" stop-color="#C6C5C7"/>
</linearGradient>
<linearGradient id="paint52_linear_3509_51718" x1="465.108" y1="118.435" x2="465.108" y2="63.8652" gradientUnits="userSpaceOnUse">
<stop stop-color="#C6C5C7"/>
<stop offset="0.24" stop-color="#DADADB"/>
<stop offset="0.26" stop-color="#DEDEDF"/>
<stop offset="0.41" stop-color="#F6F6F6"/>
<stop offset="0.5" stop-color="white"/>
<stop offset="0.61" stop-color="#F6F6F6"/>
<stop offset="0.78" stop-color="#DEDEDF"/>
<stop offset="0.81" stop-color="#DADADB"/>
<stop offset="1" stop-color="#C6C5C7"/>
</linearGradient>
<linearGradient id="paint53_linear_3509_51718" x1="465.108" y1="118.435" x2="465.108" y2="63.8652" gradientUnits="userSpaceOnUse">
<stop stop-color="#C6C5C7"/>
<stop offset="0.24" stop-color="#DADADB"/>
<stop offset="0.26" stop-color="#DEDEDF"/>
<stop offset="0.41" stop-color="#F6F6F6"/>
<stop offset="0.5" stop-color="white"/>
<stop offset="0.61" stop-color="#F6F6F6"/>
<stop offset="0.78" stop-color="#DEDEDF"/>
<stop offset="0.81" stop-color="#DADADB"/>
<stop offset="1" stop-color="#C6C5C7"/>
</linearGradient>
<linearGradient id="paint54_linear_3509_51718" x1="465.108" y1="118.435" x2="465.108" y2="63.8652" gradientUnits="userSpaceOnUse">
<stop stop-color="#C6C5C7"/>
<stop offset="0.24" stop-color="#DADADB"/>
<stop offset="0.26" stop-color="#DEDEDF"/>
<stop offset="0.41" stop-color="#F6F6F6"/>
<stop offset="0.5" stop-color="white"/>
<stop offset="0.61" stop-color="#F6F6F6"/>
<stop offset="0.78" stop-color="#DEDEDF"/>
<stop offset="0.81" stop-color="#DADADB"/>
<stop offset="1" stop-color="#C6C5C7"/>
</linearGradient>
<linearGradient id="paint55_linear_3509_51718" x1="465.108" y1="118.435" x2="465.108" y2="63.8652" gradientUnits="userSpaceOnUse">
<stop stop-color="#C6C5C7"/>
<stop offset="0.24" stop-color="#DADADB"/>
<stop offset="0.26" stop-color="#DEDEDF"/>
<stop offset="0.41" stop-color="#F6F6F6"/>
<stop offset="0.5" stop-color="white"/>
<stop offset="0.61" stop-color="#F6F6F6"/>
<stop offset="0.78" stop-color="#DEDEDF"/>
<stop offset="0.81" stop-color="#DADADB"/>
<stop offset="1" stop-color="#C6C5C7"/>
</linearGradient>
<linearGradient id="paint56_linear_3509_51718" x1="465.108" y1="118.435" x2="465.108" y2="63.8652" gradientUnits="userSpaceOnUse">
<stop stop-color="#C6C5C7"/>
<stop offset="0.24" stop-color="#DADADB"/>
<stop offset="0.26" stop-color="#DEDEDF"/>
<stop offset="0.41" stop-color="#F6F6F6"/>
<stop offset="0.5" stop-color="white"/>
<stop offset="0.61" stop-color="#F6F6F6"/>
<stop offset="0.78" stop-color="#DEDEDF"/>
<stop offset="0.81" stop-color="#DADADB"/>
<stop offset="1" stop-color="#C6C5C7"/>
</linearGradient>
<linearGradient id="paint57_linear_3509_51718" x1="465.108" y1="118.435" x2="465.108" y2="63.8652" gradientUnits="userSpaceOnUse">
<stop stop-color="#C6C5C7"/>
<stop offset="0.24" stop-color="#DADADB"/>
<stop offset="0.26" stop-color="#DEDEDF"/>
<stop offset="0.41" stop-color="#F6F6F6"/>
<stop offset="0.5" stop-color="white"/>
<stop offset="0.61" stop-color="#F6F6F6"/>
<stop offset="0.78" stop-color="#DEDEDF"/>
<stop offset="0.81" stop-color="#DADADB"/>
<stop offset="1" stop-color="#C6C5C7"/>
</linearGradient>
<linearGradient id="paint58_linear_3509_51718" x1="465.108" y1="118.435" x2="465.108" y2="63.8652" gradientUnits="userSpaceOnUse">
<stop stop-color="#C6C5C7"/>
<stop offset="0.24" stop-color="#DADADB"/>
<stop offset="0.26" stop-color="#DEDEDF"/>
<stop offset="0.41" stop-color="#F6F6F6"/>
<stop offset="0.5" stop-color="white"/>
<stop offset="0.61" stop-color="#F6F6F6"/>
<stop offset="0.78" stop-color="#DEDEDF"/>
<stop offset="0.81" stop-color="#DADADB"/>
<stop offset="1" stop-color="#C6C5C7"/>
</linearGradient>
<linearGradient id="paint59_linear_3509_51718" x1="465.108" y1="118.435" x2="465.108" y2="63.8652" gradientUnits="userSpaceOnUse">
<stop stop-color="#C6C5C7"/>
<stop offset="0.24" stop-color="#DADADB"/>
<stop offset="0.26" stop-color="#DEDEDF"/>
<stop offset="0.41" stop-color="#F6F6F6"/>
<stop offset="0.5" stop-color="white"/>
<stop offset="0.61" stop-color="#F6F6F6"/>
<stop offset="0.78" stop-color="#DEDEDF"/>
<stop offset="0.81" stop-color="#DADADB"/>
<stop offset="1" stop-color="#C6C5C7"/>
</linearGradient>
<linearGradient id="paint60_linear_3509_51718" x1="465.108" y1="118.435" x2="465.108" y2="63.8652" gradientUnits="userSpaceOnUse">
<stop stop-color="#C6C5C7"/>
<stop offset="0.24" stop-color="#DADADB"/>
<stop offset="0.26" stop-color="#DEDEDF"/>
<stop offset="0.41" stop-color="#F6F6F6"/>
<stop offset="0.5" stop-color="white"/>
<stop offset="0.61" stop-color="#F6F6F6"/>
<stop offset="0.78" stop-color="#DEDEDF"/>
<stop offset="0.81" stop-color="#DADADB"/>
<stop offset="1" stop-color="#C6C5C7"/>
</linearGradient>
<linearGradient id="paint61_linear_3509_51718" x1="465.108" y1="118.435" x2="465.108" y2="63.8652" gradientUnits="userSpaceOnUse">
<stop stop-color="#C6C5C7"/>
<stop offset="0.24" stop-color="#DADADB"/>
<stop offset="0.26" stop-color="#DEDEDF"/>
<stop offset="0.41" stop-color="#F6F6F6"/>
<stop offset="0.5" stop-color="white"/>
<stop offset="0.61" stop-color="#F6F6F6"/>
<stop offset="0.78" stop-color="#DEDEDF"/>
<stop offset="0.81" stop-color="#DADADB"/>
<stop offset="1" stop-color="#C6C5C7"/>
</linearGradient>
<linearGradient id="paint62_linear_3509_51718" x1="465.108" y1="118.435" x2="465.108" y2="63.8652" gradientUnits="userSpaceOnUse">
<stop stop-color="#C6C5C7"/>
<stop offset="0.24" stop-color="#DADADB"/>
<stop offset="0.26" stop-color="#DEDEDF"/>
<stop offset="0.41" stop-color="#F6F6F6"/>
<stop offset="0.5" stop-color="white"/>
<stop offset="0.61" stop-color="#F6F6F6"/>
<stop offset="0.78" stop-color="#DEDEDF"/>
<stop offset="0.81" stop-color="#DADADB"/>
<stop offset="1" stop-color="#C6C5C7"/>
</linearGradient>
<linearGradient id="paint63_linear_3509_51718" x1="465.108" y1="118.435" x2="465.108" y2="63.8652" gradientUnits="userSpaceOnUse">
<stop stop-color="#C6C5C7"/>
<stop offset="0.24" stop-color="#DADADB"/>
<stop offset="0.26" stop-color="#DEDEDF"/>
<stop offset="0.41" stop-color="#F6F6F6"/>
<stop offset="0.5" stop-color="white"/>
<stop offset="0.61" stop-color="#F6F6F6"/>
<stop offset="0.78" stop-color="#DEDEDF"/>
<stop offset="0.81" stop-color="#DADADB"/>
<stop offset="1" stop-color="#C6C5C7"/>
</linearGradient>
<linearGradient id="paint64_linear_3509_51718" x1="465.108" y1="118.435" x2="465.108" y2="63.8652" gradientUnits="userSpaceOnUse">
<stop stop-color="#C6C5C7"/>
<stop offset="0.24" stop-color="#DADADB"/>
<stop offset="0.26" stop-color="#DEDEDF"/>
<stop offset="0.41" stop-color="#F6F6F6"/>
<stop offset="0.5" stop-color="white"/>
<stop offset="0.61" stop-color="#F6F6F6"/>
<stop offset="0.78" stop-color="#DEDEDF"/>
<stop offset="0.81" stop-color="#DADADB"/>
<stop offset="1" stop-color="#C6C5C7"/>
</linearGradient>
<linearGradient id="paint65_linear_3509_51718" x1="465.108" y1="118.435" x2="465.108" y2="63.8652" gradientUnits="userSpaceOnUse">
<stop stop-color="#C6C5C7"/>
<stop offset="0.24" stop-color="#DADADB"/>
<stop offset="0.26" stop-color="#DEDEDF"/>
<stop offset="0.41" stop-color="#F6F6F6"/>
<stop offset="0.5" stop-color="white"/>
<stop offset="0.61" stop-color="#F6F6F6"/>
<stop offset="0.78" stop-color="#DEDEDF"/>
<stop offset="0.81" stop-color="#DADADB"/>
<stop offset="1" stop-color="#C6C5C7"/>
</linearGradient>
<linearGradient id="paint66_linear_3509_51718" x1="465.108" y1="118.435" x2="465.108" y2="63.8652" gradientUnits="userSpaceOnUse">
<stop stop-color="#C6C5C7"/>
<stop offset="0.24" stop-color="#DADADB"/>
<stop offset="0.26" stop-color="#DEDEDF"/>
<stop offset="0.41" stop-color="#F6F6F6"/>
<stop offset="0.5" stop-color="white"/>
<stop offset="0.61" stop-color="#F6F6F6"/>
<stop offset="0.78" stop-color="#DEDEDF"/>
<stop offset="0.81" stop-color="#DADADB"/>
<stop offset="1" stop-color="#C6C5C7"/>
</linearGradient>
<linearGradient id="paint67_linear_3509_51718" x1="465.108" y1="118.435" x2="465.108" y2="63.8652" gradientUnits="userSpaceOnUse">
<stop stop-color="#C6C5C7"/>
<stop offset="0.24" stop-color="#DADADB"/>
<stop offset="0.26" stop-color="#DEDEDF"/>
<stop offset="0.41" stop-color="#F6F6F6"/>
<stop offset="0.5" stop-color="white"/>
<stop offset="0.61" stop-color="#F6F6F6"/>
<stop offset="0.78" stop-color="#DEDEDF"/>
<stop offset="0.81" stop-color="#DADADB"/>
<stop offset="1" stop-color="#C6C5C7"/>
</linearGradient>
<linearGradient id="paint68_linear_3509_51718" x1="465.108" y1="118.435" x2="465.108" y2="63.8652" gradientUnits="userSpaceOnUse">
<stop stop-color="#C6C5C7"/>
<stop offset="0.24" stop-color="#DADADB"/>
<stop offset="0.26" stop-color="#DEDEDF"/>
<stop offset="0.41" stop-color="#F6F6F6"/>
<stop offset="0.5" stop-color="white"/>
<stop offset="0.61" stop-color="#F6F6F6"/>
<stop offset="0.78" stop-color="#DEDEDF"/>
<stop offset="0.81" stop-color="#DADADB"/>
<stop offset="1" stop-color="#C6C5C7"/>
</linearGradient>
<linearGradient id="paint69_linear_3509_51718" x1="465.108" y1="118.435" x2="465.108" y2="63.8652" gradientUnits="userSpaceOnUse">
<stop stop-color="#C6C5C7"/>
<stop offset="0.24" stop-color="#DADADB"/>
<stop offset="0.26" stop-color="#DEDEDF"/>
<stop offset="0.41" stop-color="#F6F6F6"/>
<stop offset="0.5" stop-color="white"/>
<stop offset="0.61" stop-color="#F6F6F6"/>
<stop offset="0.78" stop-color="#DEDEDF"/>
<stop offset="0.81" stop-color="#DADADB"/>
<stop offset="1" stop-color="#C6C5C7"/>
</linearGradient>
<linearGradient id="paint70_linear_3509_51718" x1="465.108" y1="118.435" x2="465.108" y2="63.8652" gradientUnits="userSpaceOnUse">
<stop stop-color="#C6C5C7"/>
<stop offset="0.24" stop-color="#DADADB"/>
<stop offset="0.26" stop-color="#DEDEDF"/>
<stop offset="0.41" stop-color="#F6F6F6"/>
<stop offset="0.5" stop-color="white"/>
<stop offset="0.61" stop-color="#F6F6F6"/>
<stop offset="0.78" stop-color="#DEDEDF"/>
<stop offset="0.81" stop-color="#DADADB"/>
<stop offset="1" stop-color="#C6C5C7"/>
</linearGradient>
<linearGradient id="paint71_linear_3509_51718" x1="465.108" y1="118.435" x2="465.108" y2="63.8652" gradientUnits="userSpaceOnUse">
<stop stop-color="#C6C5C7"/>
<stop offset="0.24" stop-color="#DADADB"/>
<stop offset="0.26" stop-color="#DEDEDF"/>
<stop offset="0.41" stop-color="#F6F6F6"/>
<stop offset="0.5" stop-color="white"/>
<stop offset="0.61" stop-color="#F6F6F6"/>
<stop offset="0.78" stop-color="#DEDEDF"/>
<stop offset="0.81" stop-color="#DADADB"/>
<stop offset="1" stop-color="#C6C5C7"/>
</linearGradient>
<linearGradient id="paint72_linear_3509_51718" x1="465.108" y1="118.435" x2="465.108" y2="63.8652" gradientUnits="userSpaceOnUse">
<stop stop-color="#C6C5C7"/>
<stop offset="0.24" stop-color="#DADADB"/>
<stop offset="0.26" stop-color="#DEDEDF"/>
<stop offset="0.41" stop-color="#F6F6F6"/>
<stop offset="0.5" stop-color="white"/>
<stop offset="0.61" stop-color="#F6F6F6"/>
<stop offset="0.78" stop-color="#DEDEDF"/>
<stop offset="0.81" stop-color="#DADADB"/>
<stop offset="1" stop-color="#C6C5C7"/>
</linearGradient>
<linearGradient id="paint73_linear_3509_51718" x1="465.108" y1="118.435" x2="465.108" y2="63.8652" gradientUnits="userSpaceOnUse">
<stop stop-color="#C6C5C7"/>
<stop offset="0.24" stop-color="#DADADB"/>
<stop offset="0.26" stop-color="#DEDEDF"/>
<stop offset="0.41" stop-color="#F6F6F6"/>
<stop offset="0.5" stop-color="white"/>
<stop offset="0.61" stop-color="#F6F6F6"/>
<stop offset="0.78" stop-color="#DEDEDF"/>
<stop offset="0.81" stop-color="#DADADB"/>
<stop offset="1" stop-color="#C6C5C7"/>
</linearGradient>
<linearGradient id="paint74_linear_3509_51718" x1="465.108" y1="118.435" x2="465.108" y2="63.8652" gradientUnits="userSpaceOnUse">
<stop stop-color="#C6C5C7"/>
<stop offset="0.24" stop-color="#DADADB"/>
<stop offset="0.26" stop-color="#DEDEDF"/>
<stop offset="0.41" stop-color="#F6F6F6"/>
<stop offset="0.5" stop-color="white"/>
<stop offset="0.61" stop-color="#F6F6F6"/>
<stop offset="0.78" stop-color="#DEDEDF"/>
<stop offset="0.81" stop-color="#DADADB"/>
<stop offset="1" stop-color="#C6C5C7"/>
</linearGradient>
<linearGradient id="paint75_linear_3509_51718" x1="465.108" y1="118.435" x2="465.108" y2="63.8652" gradientUnits="userSpaceOnUse">
<stop stop-color="#C6C5C7"/>
<stop offset="0.24" stop-color="#DADADB"/>
<stop offset="0.26" stop-color="#DEDEDF"/>
<stop offset="0.41" stop-color="#F6F6F6"/>
<stop offset="0.5" stop-color="white"/>
<stop offset="0.61" stop-color="#F6F6F6"/>
<stop offset="0.78" stop-color="#DEDEDF"/>
<stop offset="0.81" stop-color="#DADADB"/>
<stop offset="1" stop-color="#C6C5C7"/>
</linearGradient>
<linearGradient id="paint76_linear_3509_51718" x1="465.108" y1="118.435" x2="465.108" y2="63.8652" gradientUnits="userSpaceOnUse">
<stop stop-color="#C6C5C7"/>
<stop offset="0.24" stop-color="#DADADB"/>
<stop offset="0.26" stop-color="#DEDEDF"/>
<stop offset="0.41" stop-color="#F6F6F6"/>
<stop offset="0.5" stop-color="white"/>
<stop offset="0.61" stop-color="#F6F6F6"/>
<stop offset="0.78" stop-color="#DEDEDF"/>
<stop offset="0.81" stop-color="#DADADB"/>
<stop offset="1" stop-color="#C6C5C7"/>
</linearGradient>
<linearGradient id="paint77_linear_3509_51718" x1="465.108" y1="118.435" x2="465.108" y2="63.8652" gradientUnits="userSpaceOnUse">
<stop stop-color="#C6C5C7"/>
<stop offset="0.24" stop-color="#DADADB"/>
<stop offset="0.26" stop-color="#DEDEDF"/>
<stop offset="0.41" stop-color="#F6F6F6"/>
<stop offset="0.5" stop-color="white"/>
<stop offset="0.61" stop-color="#F6F6F6"/>
<stop offset="0.78" stop-color="#DEDEDF"/>
<stop offset="0.81" stop-color="#DADADB"/>
<stop offset="1" stop-color="#C6C5C7"/>
</linearGradient>
<linearGradient id="paint78_linear_3509_51718" x1="465.108" y1="118.435" x2="465.108" y2="63.8652" gradientUnits="userSpaceOnUse">
<stop stop-color="#C6C5C7"/>
<stop offset="0.24" stop-color="#DADADB"/>
<stop offset="0.26" stop-color="#DEDEDF"/>
<stop offset="0.41" stop-color="#F6F6F6"/>
<stop offset="0.5" stop-color="white"/>
<stop offset="0.61" stop-color="#F6F6F6"/>
<stop offset="0.78" stop-color="#DEDEDF"/>
<stop offset="0.81" stop-color="#DADADB"/>
<stop offset="1" stop-color="#C6C5C7"/>
</linearGradient>
<linearGradient id="paint79_linear_3509_51718" x1="465.108" y1="118.435" x2="465.108" y2="63.8652" gradientUnits="userSpaceOnUse">
<stop stop-color="#C6C5C7"/>
<stop offset="0.24" stop-color="#DADADB"/>
<stop offset="0.26" stop-color="#DEDEDF"/>
<stop offset="0.41" stop-color="#F6F6F6"/>
<stop offset="0.5" stop-color="white"/>
<stop offset="0.61" stop-color="#F6F6F6"/>
<stop offset="0.78" stop-color="#DEDEDF"/>
<stop offset="0.81" stop-color="#DADADB"/>
<stop offset="1" stop-color="#C6C5C7"/>
</linearGradient>
<linearGradient id="paint80_linear_3509_51718" x1="465.108" y1="118.435" x2="465.108" y2="63.8652" gradientUnits="userSpaceOnUse">
<stop stop-color="#C6C5C7"/>
<stop offset="0.24" stop-color="#DADADB"/>
<stop offset="0.26" stop-color="#DEDEDF"/>
<stop offset="0.41" stop-color="#F6F6F6"/>
<stop offset="0.5" stop-color="white"/>
<stop offset="0.61" stop-color="#F6F6F6"/>
<stop offset="0.78" stop-color="#DEDEDF"/>
<stop offset="0.81" stop-color="#DADADB"/>
<stop offset="1" stop-color="#C6C5C7"/>
</linearGradient>
<linearGradient id="paint81_linear_3509_51718" x1="465.108" y1="118.435" x2="465.108" y2="63.8652" gradientUnits="userSpaceOnUse">
<stop stop-color="#C6C5C7"/>
<stop offset="0.24" stop-color="#DADADB"/>
<stop offset="0.26" stop-color="#DEDEDF"/>
<stop offset="0.41" stop-color="#F6F6F6"/>
<stop offset="0.5" stop-color="white"/>
<stop offset="0.61" stop-color="#F6F6F6"/>
<stop offset="0.78" stop-color="#DEDEDF"/>
<stop offset="0.81" stop-color="#DADADB"/>
<stop offset="1" stop-color="#C6C5C7"/>
</linearGradient>
<linearGradient id="paint82_linear_3509_51718" x1="465.108" y1="118.435" x2="465.108" y2="63.8652" gradientUnits="userSpaceOnUse">
<stop stop-color="#C6C5C7"/>
<stop offset="0.24" stop-color="#DADADB"/>
<stop offset="0.26" stop-color="#DEDEDF"/>
<stop offset="0.41" stop-color="#F6F6F6"/>
<stop offset="0.5" stop-color="white"/>
<stop offset="0.61" stop-color="#F6F6F6"/>
<stop offset="0.78" stop-color="#DEDEDF"/>
<stop offset="0.81" stop-color="#DADADB"/>
<stop offset="1" stop-color="#C6C5C7"/>
</linearGradient>
<linearGradient id="paint83_linear_3509_51718" x1="465.108" y1="118.435" x2="465.108" y2="63.8652" gradientUnits="userSpaceOnUse">
<stop stop-color="#C6C5C7"/>
<stop offset="0.24" stop-color="#DADADB"/>
<stop offset="0.26" stop-color="#DEDEDF"/>
<stop offset="0.41" stop-color="#F6F6F6"/>
<stop offset="0.5" stop-color="white"/>
<stop offset="0.61" stop-color="#F6F6F6"/>
<stop offset="0.78" stop-color="#DEDEDF"/>
<stop offset="0.81" stop-color="#DADADB"/>
<stop offset="1" stop-color="#C6C5C7"/>
</linearGradient>
<linearGradient id="paint84_linear_3509_51718" x1="465.108" y1="118.435" x2="465.108" y2="63.8652" gradientUnits="userSpaceOnUse">
<stop stop-color="#C6C5C7"/>
<stop offset="0.24" stop-color="#DADADB"/>
<stop offset="0.26" stop-color="#DEDEDF"/>
<stop offset="0.41" stop-color="#F6F6F6"/>
<stop offset="0.5" stop-color="white"/>
<stop offset="0.61" stop-color="#F6F6F6"/>
<stop offset="0.78" stop-color="#DEDEDF"/>
<stop offset="0.81" stop-color="#DADADB"/>
<stop offset="1" stop-color="#C6C5C7"/>
</linearGradient>
<linearGradient id="paint85_linear_3509_51718" x1="465.108" y1="118.435" x2="465.108" y2="63.8652" gradientUnits="userSpaceOnUse">
<stop stop-color="#C6C5C7"/>
<stop offset="0.24" stop-color="#DADADB"/>
<stop offset="0.26" stop-color="#DEDEDF"/>
<stop offset="0.41" stop-color="#F6F6F6"/>
<stop offset="0.5" stop-color="white"/>
<stop offset="0.61" stop-color="#F6F6F6"/>
<stop offset="0.78" stop-color="#DEDEDF"/>
<stop offset="0.81" stop-color="#DADADB"/>
<stop offset="1" stop-color="#C6C5C7"/>
</linearGradient>
<linearGradient id="paint86_linear_3509_51718" x1="465.108" y1="118.435" x2="465.108" y2="63.8652" gradientUnits="userSpaceOnUse">
<stop stop-color="#C6C5C7"/>
<stop offset="0.24" stop-color="#DADADB"/>
<stop offset="0.26" stop-color="#DEDEDF"/>
<stop offset="0.41" stop-color="#F6F6F6"/>
<stop offset="0.5" stop-color="white"/>
<stop offset="0.61" stop-color="#F6F6F6"/>
<stop offset="0.78" stop-color="#DEDEDF"/>
<stop offset="0.81" stop-color="#DADADB"/>
<stop offset="1" stop-color="#C6C5C7"/>
</linearGradient>
<linearGradient id="paint87_linear_3509_51718" x1="465.108" y1="118.435" x2="465.108" y2="63.8652" gradientUnits="userSpaceOnUse">
<stop stop-color="#C6C5C7"/>
<stop offset="0.24" stop-color="#DADADB"/>
<stop offset="0.26" stop-color="#DEDEDF"/>
<stop offset="0.41" stop-color="#F6F6F6"/>
<stop offset="0.5" stop-color="white"/>
<stop offset="0.61" stop-color="#F6F6F6"/>
<stop offset="0.78" stop-color="#DEDEDF"/>
<stop offset="0.81" stop-color="#DADADB"/>
<stop offset="1" stop-color="#C6C5C7"/>
</linearGradient>
<linearGradient id="paint88_linear_3509_51718" x1="56.183" y1="44.9258" x2="56.183" y2="1.66016" gradientUnits="userSpaceOnUse">
<stop stop-color="#C6C5C7"/>
<stop offset="0.24" stop-color="#DADADB"/>
<stop offset="0.26" stop-color="#DEDEDF"/>
<stop offset="0.41" stop-color="#F6F6F6"/>
<stop offset="0.5" stop-color="white"/>
<stop offset="0.61" stop-color="#F6F6F6"/>
<stop offset="0.78" stop-color="#DEDEDF"/>
<stop offset="0.81" stop-color="#DADADB"/>
<stop offset="1" stop-color="#C6C5C7"/>
</linearGradient>
<linearGradient id="paint89_linear_3509_51718" x1="120.342" y1="121.284" x2="120.342" y2="1.66016" gradientUnits="userSpaceOnUse">
<stop stop-color="#C6C5C7"/>
<stop offset="0.24" stop-color="#DADADB"/>
<stop offset="0.26" stop-color="#DEDEDF"/>
<stop offset="0.41" stop-color="#F6F6F6"/>
<stop offset="0.5" stop-color="white"/>
<stop offset="0.61" stop-color="#F6F6F6"/>
<stop offset="0.78" stop-color="#DEDEDF"/>
<stop offset="0.81" stop-color="#DADADB"/>
<stop offset="1" stop-color="#C6C5C7"/>
</linearGradient>
<linearGradient id="paint90_linear_3509_51718" x1="106.387" y1="104.314" x2="106.387" y2="65.7723" gradientUnits="userSpaceOnUse">
<stop stop-color="#C6C5C7"/>
<stop offset="0.24" stop-color="#DADADB"/>
<stop offset="0.26" stop-color="#DEDEDF"/>
<stop offset="0.41" stop-color="#F6F6F6"/>
<stop offset="0.5" stop-color="white"/>
<stop offset="0.61" stop-color="#F6F6F6"/>
<stop offset="0.78" stop-color="#DEDEDF"/>
<stop offset="0.81" stop-color="#DADADB"/>
<stop offset="1" stop-color="#C6C5C7"/>
</linearGradient>
<linearGradient id="paint91_linear_3509_51718" x1="98.3603" y1="83.2056" x2="98.3603" y2="0" gradientUnits="userSpaceOnUse">
<stop stop-color="#C6C5C7"/>
<stop offset="0.24" stop-color="#DADADB"/>
<stop offset="0.26" stop-color="#DEDEDF"/>
<stop offset="0.41" stop-color="#F6F6F6"/>
<stop offset="0.5" stop-color="white"/>
<stop offset="0.61" stop-color="#F6F6F6"/>
<stop offset="0.78" stop-color="#DEDEDF"/>
<stop offset="0.81" stop-color="#DADADB"/>
<stop offset="1" stop-color="#C6C5C7"/>
</linearGradient>
<linearGradient id="paint92_linear_3509_51718" x1="52.6341" y1="56.976" x2="52.6341" y2="12.4315" gradientUnits="userSpaceOnUse">
<stop stop-color="#C6C5C7"/>
<stop offset="0.24" stop-color="#DADADB"/>
<stop offset="0.26" stop-color="#DEDEDF"/>
<stop offset="0.41" stop-color="#F6F6F6"/>
<stop offset="0.5" stop-color="white"/>
<stop offset="0.61" stop-color="#F6F6F6"/>
<stop offset="0.78" stop-color="#DEDEDF"/>
<stop offset="0.81" stop-color="#DADADB"/>
<stop offset="1" stop-color="#C6C5C7"/>
</linearGradient>
<linearGradient id="paint93_linear_3509_51718" x1="133.639" y1="122.127" x2="133.639" y2="2.50391" gradientUnits="userSpaceOnUse">
<stop stop-color="#C6C5C7"/>
<stop offset="0.24" stop-color="#DADADB"/>
<stop offset="0.26" stop-color="#DEDEDF"/>
<stop offset="0.41" stop-color="#F6F6F6"/>
<stop offset="0.5" stop-color="white"/>
<stop offset="0.61" stop-color="#F6F6F6"/>
<stop offset="0.78" stop-color="#DEDEDF"/>
<stop offset="0.81" stop-color="#DADADB"/>
<stop offset="1" stop-color="#C6C5C7"/>
</linearGradient>
</defs>
</svg>
