<svg width="122" height="123" viewBox="0 0 122 123" fill="none" xmlns="http://www.w3.org/2000/svg">
<path d="M3.3879 42.461V42.3591C4.32686 40.8289 5.34234 39.347 6.43046 37.919C7.02733 37.1183 7.63876 36.3613 8.26474 35.6043L10.0408 33.6099V16.2571C10.0408 13.4752 12.2959 11.2201 15.0778 11.2201H39.1272C44.9392 7.94308 50.9764 5.08258 57.1933 2.66016H15.136C7.62994 2.66818 1.54709 8.75104 1.53906 16.2571V45.9986C1.95638 45.1736 2.37856 44.3729 2.80559 43.5965L3.3879 42.461Z" fill="url(#paint0_linear_3529_52414)"/>
<path d="M107.781 2.66016H87.8956C83.5283 4.4362 74.4588 8.58516 68.7376 11.2201H107.781C110.563 11.2201 112.818 13.4752 112.818 16.2571V108.903C112.81 111.679 110.558 113.925 107.781 113.925H15.136C12.3598 113.925 10.107 111.679 10.099 108.903V83.9652C9.64773 83.6886 9.18188 83.4265 8.7597 83.1354C6.85289 81.7609 5.11783 80.1627 3.5917 78.375C2.84928 77.4773 2.16372 76.5341 1.53906 75.5508V108.903C1.5551 116.403 7.63562 122.477 15.136 122.485H107.781C115.28 122.477 121.356 116.401 121.364 108.903V16.2571C121.364 8.75339 115.285 2.66819 107.781 2.66016Z" fill="url(#paint1_linear_3529_52414)"/>
<path d="M107.404 66.7723L107.23 94.2428L100.373 89.2058L100.271 89.2932L98.6261 90.7489C98.0292 91.2876 97.1703 91.8117 96.4715 92.4085L93.9967 94.2574C93.1378 94.8979 92.1333 95.4365 91.0852 96.0771C86.5598 98.855 81.6901 101.028 76.6002 102.541C70.9299 104.259 65.0539 105.204 59.1309 105.35C56.2167 105.43 53.3004 105.343 50.3963 105.088C47.5996 104.798 44.82 104.36 42.0692 103.778C39.3906 103.298 36.9012 102.41 34.5283 101.755L31.18 100.488L29.6515 99.8621L28.1957 99.1633C26.4191 98.3905 24.6887 97.5155 23.0131 96.5429C21.5574 95.6695 20.2035 94.9852 19.199 94.2428L16.0982 92.1028L19.5338 93.5586C20.886 94.1818 22.271 94.7309 23.6828 95.2036C25.4582 95.8211 27.2661 96.3411 29.0983 96.7613L30.554 97.1544L32.17 97.4309L35.5182 98.0133C37.9335 98.3216 40.363 98.5063 42.7971 98.5665C45.371 98.6234 47.9461 98.5505 50.5127 98.3481C53.1264 98.0847 55.7223 97.6666 58.2866 97.0961C63.2232 96.0523 67.9939 94.338 72.4658 92.0009C76.2441 90.0491 79.7447 87.6012 82.8746 84.722C83.5442 84.1106 84.2284 83.572 84.7816 82.9606C85.3348 82.3491 85.8589 81.7523 86.3393 81.2282C86.8197 80.7041 87.2419 80.2674 87.635 79.7724L80.9821 74.8664L107.404 66.7723Z" fill="url(#paint2_linear_3529_52414)" stroke="url(#paint3_linear_3529_52414)" stroke-width="0.811404"/>
<path d="M26.1386 84.183C22.5508 83.9603 19.0148 83.2148 15.6424 81.9702C14.7227 81.6413 13.8275 81.2472 12.9638 80.791C12.1049 80.296 11.2023 79.7865 10.3871 79.2479C8.784 78.1168 7.31833 76.8026 6.01977 75.3318C3.46239 72.3173 1.8029 68.6453 1.23028 64.7338C0.731748 61.1049 1.045 57.4106 2.14741 53.9174C2.37661 53.088 2.66361 52.2756 3.00632 51.4863L3.98169 49.157C4.68046 47.7012 5.43746 46.2455 6.31093 44.7897C7.18439 43.3339 8.1452 42.0383 9.14969 40.7426C9.70288 40.0148 10.2852 39.2869 10.8821 38.6318C12.3767 36.9043 13.9392 35.2641 15.5697 33.7113C36.6056 13.8399 65.561 2.93618 82.2878 1C78.7794 2.15006 69.0548 6.28446 63.5083 8.80295C58.2383 11.1364 53.0926 13.7409 48.0917 16.6059C38.8153 21.4951 30.3137 27.7303 22.8631 35.1088C21.7421 36.2734 20.6649 37.4672 19.6021 38.69C17.038 41.6499 14.8431 44.9105 13.0657 48.4C12.5562 49.652 11.9739 50.8748 11.5226 52.1268L10.9548 54.0339C10.742 54.6501 10.5813 55.2832 10.4744 55.9264C9.9411 58.2742 9.9411 60.7118 10.4744 63.0597C10.9951 65.1587 12.1006 67.0668 13.6626 68.5625C14.4726 69.2918 15.3556 69.9357 16.2975 70.4841C17.2257 70.9596 18.2017 71.3353 19.2091 71.6051C21.5845 72.2172 24.037 72.4772 26.488 72.3766C29.0817 72.3127 31.6664 72.045 34.2181 71.5759C43.4947 69.8993 52.2671 66.1305 59.8689 60.5557L60.9898 59.6823L62.2127 58.6341C63.0133 57.9499 63.7849 57.2948 64.5128 56.6251C65.9686 55.3441 67.2788 54.0921 68.5016 52.9129C70.1395 51.2359 71.6803 49.4667 73.1164 47.6139L63.2754 41.6307L99.3786 29.5477V63.7293L88.5767 57.1055C88.4166 57.2657 88.2856 57.4258 88.14 57.6005C85.6977 60.3547 83.0451 62.9148 80.206 65.2579C78.6047 66.539 76.916 67.9074 75.1108 69.203C74.2083 69.8873 73.2911 70.5132 72.3449 71.1683L70.8891 72.1583L69.2149 73.2501C64.4448 76.24 59.3196 78.6216 53.9584 80.3397C48.1562 82.2655 42.1538 83.5256 36.067 84.0956C32.7655 84.3966 29.4448 84.4258 26.1386 84.183Z" fill="url(#paint4_linear_3529_52414)" stroke="url(#paint5_linear_3529_52414)" stroke-width="0.811404"/>
<path opacity="0.84" d="M10.4935 55.9255C10.6003 55.2823 10.761 54.6493 10.9739 54.033L11.5416 52.1259C11.9929 50.874 12.5752 49.6511 13.0847 48.3992C14.8621 44.9096 17.057 41.6491 19.6212 38.6891C20.6839 37.4663 21.7612 36.2726 22.8821 35.1079C30.3327 27.7294 38.8344 21.4942 48.1107 16.605C49.9741 15.5132 51.7938 14.5233 53.6426 13.5625C52.4926 13.4751 51.3425 13.4315 50.1633 13.4315C48.1446 13.4365 46.1277 13.5531 44.1218 13.7808C33.7376 19.0771 24.1356 25.7838 15.5887 33.7104C13.9582 35.2535 12.3957 36.8937 10.9011 38.6309C10.3042 39.3151 9.7219 40.0139 9.16871 40.7418L8.73197 41.3387C8.28854 43.317 8.06398 45.3381 8.06232 47.3656C8.06881 51.0331 8.79591 54.6637 10.2023 58.0509C10.2574 57.3373 10.3546 56.6276 10.4935 55.9255Z" fill="url(#paint6_radial_3529_52414)"/>
<path opacity="0.84" d="M73.1822 47.6299C71.746 49.4826 70.2053 51.2519 68.5674 52.9289C67.3445 54.1081 66.078 55.36 64.5785 56.6411C63.8507 57.3108 63.1228 57.9659 62.2784 58.6501L61.0556 59.6983L59.9346 60.5717C52.3614 66.1272 43.6255 69.8904 34.3858 71.5774C31.834 72.0465 29.2493 72.3142 26.6556 72.378C24.867 72.4369 23.077 72.3149 21.3129 72.0141C29.6837 78.1718 39.8338 81.4325 50.2246 81.3019H50.8797C51.9279 80.9962 52.976 80.6905 53.9951 80.3557C59.3562 78.6376 64.4815 76.2559 69.2516 73.2661L70.9257 72.1742L72.3815 71.1843C73.3278 70.5292 74.2449 69.9032 75.1475 69.219C76.9526 67.9234 78.6413 66.5549 80.2427 65.2739C83.0817 62.9308 85.7344 60.3706 88.1767 57.6165C88.3222 57.4418 88.4532 57.2817 88.6134 57.1215L90.2002 58.0969C91.6243 54.7039 92.3616 51.0622 92.3693 47.3824C92.3447 42.4001 91.0145 37.5112 88.5115 33.2032L63.2829 41.6321L73.1822 47.6299Z" fill="url(#paint7_radial_3529_52414)"/>
<defs>
<linearGradient id="paint0_linear_3529_52414" x1="57.183" y1="45.9258" x2="57.183" y2="2.66016" gradientUnits="userSpaceOnUse">
<stop stop-color="#C6C5C7"/>
<stop offset="0.24" stop-color="#DADADB"/>
<stop offset="0.26" stop-color="#DEDEDF"/>
<stop offset="0.41" stop-color="#F6F6F6"/>
<stop offset="0.5" stop-color="white"/>
<stop offset="0.61" stop-color="#F6F6F6"/>
<stop offset="0.78" stop-color="#DEDEDF"/>
<stop offset="0.81" stop-color="#DADADB"/>
<stop offset="1" stop-color="#C6C5C7"/>
</linearGradient>
<linearGradient id="paint1_linear_3529_52414" x1="121.371" y1="122.485" x2="121.371" y2="2.66016" gradientUnits="userSpaceOnUse">
<stop stop-color="#C6C5C7"/>
<stop offset="0.24" stop-color="#DADADB"/>
<stop offset="0.26" stop-color="#DEDEDF"/>
<stop offset="0.41" stop-color="#F6F6F6"/>
<stop offset="0.5" stop-color="white"/>
<stop offset="0.61" stop-color="#F6F6F6"/>
<stop offset="0.78" stop-color="#DEDEDF"/>
<stop offset="0.81" stop-color="#DADADB"/>
<stop offset="1" stop-color="#C6C5C7"/>
</linearGradient>
<linearGradient id="paint2_linear_3529_52414" x1="16.0691" y1="105.414" x2="107.404" y2="105.414" gradientUnits="userSpaceOnUse">
<stop stop-color="#E58E00"/>
<stop offset="0.32" stop-color="#EAB901"/>
<stop offset="0.46" stop-color="#F5D667"/>
<stop offset="0.6" stop-color="#FFF1C8"/>
<stop offset="0.63" stop-color="#FEEEBF"/>
<stop offset="0.67" stop-color="#FBE5A5"/>
<stop offset="0.71" stop-color="#F8DB89"/>
<stop offset="0.77" stop-color="#F3CD5C"/>
<stop offset="0.86" stop-color="#ECBA21"/>
<stop offset="0.9" stop-color="#E9B30A"/>
<stop offset="1" stop-color="#E3820C"/>
</linearGradient>
<linearGradient id="paint3_linear_3529_52414" x1="107.339" y1="105.656" x2="107.339" y2="66.4521" gradientUnits="userSpaceOnUse">
<stop stop-color="#E58E00"/>
<stop offset="0.24" stop-color="#EAB901"/>
<stop offset="0.24" stop-color="#EAB902"/>
<stop offset="0.31" stop-color="#F1CD48"/>
<stop offset="0.38" stop-color="#F7DC7F"/>
<stop offset="0.43" stop-color="#FBE8A7"/>
<stop offset="0.47" stop-color="#FEEEBF"/>
<stop offset="0.5" stop-color="#FFF1C8"/>
<stop offset="0.53" stop-color="#FEEEBF"/>
<stop offset="0.58" stop-color="#FBE6A7"/>
<stop offset="0.65" stop-color="#F7D97F"/>
<stop offset="0.73" stop-color="#F0C748"/>
<stop offset="0.81" stop-color="#E9B30A"/>
<stop offset="1" stop-color="#E3820C"/>
</linearGradient>
<linearGradient id="paint4_linear_3529_52414" x1="0.997351" y1="84.3281" x2="99.3204" y2="84.3281" gradientUnits="userSpaceOnUse">
<stop stop-color="#E58E00"/>
<stop offset="0.32" stop-color="#EAB901"/>
<stop offset="0.46" stop-color="#F5D667"/>
<stop offset="0.6" stop-color="#FFF1C8"/>
<stop offset="0.63" stop-color="#FEEEBF"/>
<stop offset="0.67" stop-color="#FBE5A5"/>
<stop offset="0.71" stop-color="#F8DB89"/>
<stop offset="0.77" stop-color="#F3CD5C"/>
<stop offset="0.86" stop-color="#ECBA21"/>
<stop offset="0.9" stop-color="#E9B30A"/>
<stop offset="1" stop-color="#E3820C"/>
</linearGradient>
<linearGradient id="paint5_linear_3529_52414" x1="99.6302" y1="84.5906" x2="99.6302" y2="0.767074" gradientUnits="userSpaceOnUse">
<stop stop-color="#E58E00"/>
<stop offset="0.24" stop-color="#EAB901"/>
<stop offset="0.24" stop-color="#EAB902"/>
<stop offset="0.31" stop-color="#F1CD48"/>
<stop offset="0.38" stop-color="#F7DC7F"/>
<stop offset="0.43" stop-color="#FBE8A7"/>
<stop offset="0.47" stop-color="#FEEEBF"/>
<stop offset="0.5" stop-color="#FFF1C8"/>
<stop offset="0.53" stop-color="#FEEEBF"/>
<stop offset="0.58" stop-color="#FBE6A7"/>
<stop offset="0.65" stop-color="#F7D97F"/>
<stop offset="0.73" stop-color="#F0C748"/>
<stop offset="0.81" stop-color="#E9B30A"/>
<stop offset="1" stop-color="#E3820C"/>
</linearGradient>
<radialGradient id="paint6_radial_3529_52414" cx="0" cy="0" r="1" gradientUnits="userSpaceOnUse" gradientTransform="translate(23.8866 22.2971) scale(37.7919 36.9953)">
<stop offset="0.19" stop-color="white"/>
<stop offset="1" stop-color="white" stop-opacity="0.01"/>
</radialGradient>
<radialGradient id="paint7_radial_3529_52414" cx="0" cy="0" r="1" gradientUnits="userSpaceOnUse" gradientTransform="translate(45.9155 42.753) scale(48.9868 33.1623)">
<stop offset="0.19" stop-color="white"/>
<stop offset="1" stop-color="white" stop-opacity="0.01"/>
</radialGradient>
</defs>
</svg>
